# Blender 3.6.5
# www.blender.org
mtllib e_Flower_Deco.mtl
o e_Flower_Deco
v -0.000144 0.000443 -0.088273
v -0.044209 0.000443 -0.076465
v -0.076467 0.000443 -0.044208
v -0.088274 0.000443 -0.000143
v -0.076467 0.000443 0.043922
v -0.044209 0.000443 0.076180
v -0.000144 0.000443 0.087987
v 0.043921 0.000443 0.076180
v 0.076179 0.000443 0.043922
v 0.087986 0.000443 -0.000143
v 0.076179 0.000443 -0.044208
v 0.043921 0.000443 -0.076465
v -0.052996 0.023890 -0.091685
v -0.000144 0.023890 -0.105846
v -0.091686 0.023890 -0.052994
v -0.105848 0.023890 -0.000143
v -0.091686 0.023890 0.052709
v -0.052996 0.023890 0.091399
v -0.000144 0.023890 0.105561
v 0.052708 0.023890 0.091399
v 0.091398 0.023890 0.052709
v 0.105560 0.023890 -0.000143
v 0.091398 0.023890 -0.052994
v 0.052708 0.023890 -0.091685
v -0.028728 0.240353 -0.049650
v -0.000145 0.240353 -0.057309
v -0.049652 0.240353 -0.028726
v -0.057311 0.240353 -0.000143
v -0.049652 0.240353 0.028440
v -0.028728 0.240353 0.049365
v -0.000145 0.240353 0.057023
v 0.028438 0.240353 0.049365
v 0.049362 0.240353 0.028440
v 0.057021 0.240353 -0.000143
v 0.049362 0.240353 -0.028726
v 0.028438 0.240353 -0.049650
v -0.036024 0.241558 -0.062286
v -0.000145 0.241558 -0.071900
v -0.062289 0.241558 -0.036021
v -0.071902 0.241558 -0.000143
v -0.062289 0.241558 0.035736
v -0.036024 0.241558 0.062001
v -0.000145 0.241558 0.071615
v 0.035734 0.241558 0.062001
v 0.061999 0.241558 0.035736
v 0.071613 0.241558 -0.000143
v 0.061999 0.241558 -0.036021
v 0.035734 0.241558 -0.062286
v 0.017485 0.246801 0.012234
v -0.025550 0.231980 0.026704
v -0.044664 0.201822 -0.007111
v -0.013441 0.198006 -0.042479
v 0.024969 0.225804 -0.030523
v -0.018909 0.280342 0.008836
v -0.057319 0.252544 -0.003120
v -0.049835 0.231547 -0.045877
v -0.006799 0.246368 -0.060346
v 0.012315 0.276525 -0.026532
v -0.033917 0.280075 -0.036021
v 0.007570 0.226638 0.015711
v 0.042034 0.215171 0.015766
v 0.033954 0.248470 0.027814
v 0.007476 0.261867 0.006869
v -0.000808 0.236847 -0.018124
v 0.063241 0.243313 0.006958
v 0.041883 0.272173 0.001459
v 0.020399 0.264989 -0.026933
v 0.028478 0.231690 -0.038981
v 0.054956 0.218293 -0.018035
v 0.054863 0.253522 -0.026878
v 0.008558 0.225026 0.049623
v -0.021021 0.218329 0.043413
v -0.026212 0.224710 0.013569
v 0.000159 0.235351 0.001335
v 0.021648 0.235546 0.023617
v -0.013826 0.244808 0.057746
v -0.035314 0.244613 0.035463
v -0.022224 0.255133 0.009458
v 0.007354 0.261829 0.015668
v 0.012546 0.255448 0.045512
v -0.014569 0.267554 0.036760
vn -0.0000 -1.0000 -0.0000
vn -0.9881 0.1541 -0.0000
vn -0.8557 0.1541 -0.4940
vn -0.4001 -0.5997 0.6930
vn -0.6930 -0.5997 0.4001
vn -0.0000 -0.5997 -0.8002
vn 0.4001 -0.5997 -0.6930
vn -0.6930 -0.5997 -0.4001
vn -0.4001 -0.5997 -0.6930
vn 0.8002 -0.5997 -0.0000
vn 0.6930 -0.5997 0.4001
vn -0.0000 -0.5997 0.8002
vn -0.8002 -0.5997 -0.0000
vn 0.6930 -0.5997 -0.4001
vn 0.4001 -0.5997 0.6930
vn 0.8557 0.1541 -0.4940
vn 0.9881 0.1541 -0.0000
vn 0.4940 0.1541 0.8557
vn -0.0000 0.1541 0.9881
vn -0.8557 0.1541 0.4940
vn 0.4940 0.1541 -0.8557
vn -0.4940 0.1541 -0.8557
vn -0.0000 0.1541 -0.9881
vn 0.8557 0.1541 0.4940
vn -0.4940 0.1541 0.8557
vn -0.0000 0.9988 0.0480
vn -0.0000 0.9966 0.0823
vn 0.0411 0.9966 0.0713
vn 0.0240 0.9988 0.0416
vn 0.0713 0.9966 0.0411
vn 0.0416 0.9988 0.0240
vn 0.0823 0.9966 -0.0000
vn 0.0480 0.9988 -0.0000
vn 0.0713 0.9966 -0.0411
vn 0.0416 0.9988 -0.0240
vn 0.0411 0.9966 -0.0713
vn 0.0240 0.9988 -0.0416
vn -0.0000 0.9966 -0.0823
vn -0.0000 0.9988 -0.0480
vn -0.0411 0.9966 -0.0713
vn -0.0240 0.9988 -0.0416
vn -0.0713 0.9966 -0.0411
vn -0.0416 0.9988 -0.0240
vn -0.0823 0.9966 -0.0000
vn -0.0480 0.9988 -0.0000
vn -0.0713 0.9966 0.0411
vn -0.0416 0.9988 0.0240
vn -0.0411 0.9966 0.0713
vn -0.0240 0.9988 0.0416
vn 0.9699 0.2378 0.0530
vn 0.2034 0.3146 0.9272
vn -0.7417 -0.2345 0.6284
vn 0.5044 -0.3593 -0.7851
vn 0.5849 0.6795 0.4430
vn -0.5044 0.3593 0.7851
vn -0.9699 -0.2378 -0.0530
vn -0.2034 -0.3146 -0.9272
vn 0.7417 0.2345 -0.6284
vn 0.0834 0.9959 -0.0338
vn -0.6146 0.7628 0.2011
vn -0.8762 0.3539 -0.3271
vn -0.3964 0.3058 -0.8657
vn 0.1979 0.6733 -0.7124
vn -0.1225 -0.3638 0.9234
vn -0.5422 0.2032 0.8153
vn -0.9643 0.0621 0.2575
vn 0.5535 -0.1613 0.8171
vn -0.1255 0.7561 0.6423
vn -0.8085 0.5278 -0.2603
vn 0.8085 -0.5278 0.2603
vn 0.5516 0.5308 0.6434
vn -0.2901 0.9567 -0.0225
vn -0.5535 0.1613 -0.8171
vn 0.9643 -0.0621 -0.2575
vn 0.8055 0.5922 -0.0208
vn 0.2853 0.8554 -0.4323
vn 0.1225 0.3638 -0.9234
vn 0.5422 -0.2032 -0.8153
vn 0.4232 -0.7818 0.4580
vn 0.9012 -0.0601 0.4293
vn -0.0825 -0.4570 0.8856
vn -0.8840 -0.4643 0.0545
vn -0.3958 -0.0719 -0.9155
vn 0.7076 0.1779 -0.6839
vn 0.3958 0.0719 0.9155
vn -0.7075 -0.1779 0.6839
vn -0.9012 0.0601 -0.4293
vn 0.0825 0.4570 -0.8856
vn 0.8840 0.4643 -0.0545
vn 0.0662 0.6778 0.7323
vn -0.6156 0.5234 0.5891
vn -0.7353 0.6705 -0.0989
vn -0.1274 0.9158 -0.3809
vn 0.3680 0.9203 0.1328
vt 0.289359 0.788047
vt 0.291021 0.785168
vt 0.293900 0.783506
vt 0.297224 0.783506
vt 0.300103 0.785168
vt 0.301766 0.788047
vt 0.301765 0.791371
vt 0.300103 0.794250
vt 0.297224 0.795913
vt 0.293900 0.795913
vt 0.291021 0.794250
vt 0.289359 0.791371
vt 0.292075 0.794024
vt 0.291692 0.793361
vt 0.290465 0.791235
vt 0.290082 0.790571
vt 0.297224 0.794886
vt 0.297556 0.794886
vt 0.293568 0.794886
vt 0.293900 0.794886
vt 0.291534 0.786057
vt 0.291247 0.786223
vt 0.294700 0.784229
vt 0.294413 0.784394
vt 0.290385 0.791371
vt 0.290385 0.791703
vt 0.290385 0.787715
vt 0.290385 0.788047
vt 0.299214 0.785681
vt 0.299049 0.785394
vt 0.301042 0.788847
vt 0.300877 0.788560
vt 0.299590 0.793361
vt 0.299877 0.793196
vt 0.296424 0.795189
vt 0.296711 0.795024
vt 0.291910 0.793737
vt 0.292075 0.794024
vt 0.290082 0.790571
vt 0.290247 0.790858
vt 0.296711 0.784395
vt 0.296424 0.784229
vt 0.299877 0.786222
vt 0.299590 0.786057
vt 0.300877 0.790858
vt 0.301042 0.790571
vt 0.299049 0.794024
vt 0.299214 0.793737
vt 0.294413 0.795024
vt 0.294700 0.795189
vt 0.291247 0.793196
vt 0.291534 0.793362
vt 0.293900 0.784532
vt 0.293568 0.784532
vt 0.297556 0.784532
vt 0.297224 0.784532
vt 0.290247 0.788560
vt 0.290082 0.788847
vt 0.292075 0.785394
vt 0.291910 0.785681
vt 0.300739 0.788047
vt 0.300739 0.787716
vt 0.300739 0.791703
vt 0.300739 0.791371
vt 0.296424 0.784229
vt 0.297087 0.784611
vt 0.299213 0.785839
vt 0.301042 0.790571
vt 0.300659 0.791234
vt 0.299432 0.793361
vt 0.299049 0.794024
vt 0.294700 0.795189
vt 0.294037 0.794806
vt 0.291910 0.793579
vt 0.293568 0.784532
vt 0.294334 0.784532
vt 0.296789 0.784532
vt 0.297556 0.784532
vt 0.290465 0.788184
vt 0.291692 0.786057
vt 0.292075 0.785394
vt 0.300739 0.787716
vt 0.300739 0.788482
vt 0.300739 0.790937
vt 0.297556 0.794886
vt 0.296790 0.794886
vt 0.294334 0.794886
vt 0.293568 0.794886
vt 0.291247 0.786222
vt 0.291910 0.785839
vt 0.294037 0.784612
vt 0.294700 0.784229
vt 0.290385 0.791703
vt 0.290385 0.790936
vt 0.290385 0.788481
vt 0.290385 0.787715
vt 0.299049 0.785394
vt 0.299432 0.786058
vt 0.300659 0.788184
vt 0.299877 0.793196
vt 0.299214 0.793579
vt 0.297088 0.794806
vt 0.292890 0.787037
vt 0.292208 0.786355
vt 0.290981 0.788482
vt 0.291912 0.788731
vt 0.290981 0.790937
vt 0.291912 0.790687
vt 0.292208 0.793063
vt 0.292890 0.792381
vt 0.294335 0.794290
vt 0.294584 0.793359
vt 0.296789 0.794290
vt 0.296540 0.793359
vt 0.298916 0.793063
vt 0.298234 0.792381
vt 0.300143 0.790937
vt 0.299212 0.790687
vt 0.300143 0.788481
vt 0.299212 0.788731
vt 0.298916 0.786355
vt 0.298234 0.787037
vt 0.296789 0.785128
vt 0.296540 0.786059
vt 0.294334 0.785128
vt 0.294584 0.786059
vt 0.965246 0.875398
vt 0.965246 0.877354
vt 0.966224 0.879048
vt 0.967917 0.880025
vt 0.969873 0.880025
vt 0.971567 0.879048
vt 0.972545 0.877354
vt 0.972545 0.875398
vt 0.971567 0.873704
vt 0.969873 0.872726
vt 0.967917 0.872726
vt 0.966224 0.873704
vt 0.964395 0.875404
vt 0.966213 0.875404
vt 0.965304 0.876978
vt 0.962576 0.875404
vt 0.963485 0.876978
vt 0.969849 0.875404
vt 0.971667 0.875404
vt 0.970758 0.876978
vt 0.968031 0.875404
vt 0.967122 0.876978
vt 0.961667 0.876978
vt 0.968940 0.876978
vt 0.964395 0.878553
vt 0.962576 0.878553
vt 0.969849 0.878553
vt 0.968031 0.878553
vt 0.966213 0.878553
vt 0.963485 0.873829
vt 0.970758 0.873829
vt 0.968940 0.873829
s 1
usemtl Palette
f 2/1/1 1/2/1 12/3/1 11/4/1 10/5/1 9/6/1 8/7/1 7/8/1 6/9/1 5/10/1 4/11/1 3/12/1
f 16/13/2 40/14/2 39/15/3 15/16/3
f 6/17/4 18/18/4 17/19/5 5/20/5
f 1/21/6 14/22/6 24/23/7 12/24/7
f 3/25/8 15/26/8 13/27/9 2/28/9
f 10/29/10 22/30/10 21/31/11 9/32/11
f 7/33/12 19/34/12 18/35/4 6/36/4
f 4/37/13 16/38/13 15/39/8 3/40/8
f 11/41/14 23/42/14 22/43/10 10/44/10
f 8/45/15 20/46/15 19/47/12 7/48/12
f 5/49/5 17/50/5 16/51/13 4/52/13
f 12/53/7 24/54/7 23/55/14 11/56/14
f 2/57/9 13/58/9 14/59/6 1/60/6
f 9/61/11 21/62/11 20/63/15 8/64/15
f 23/65/16 47/66/16 46/67/17 22/43/17
f 20/68/18 44/69/18 43/70/19 19/71/19
f 17/72/20 41/73/20 40/74/2 16/51/2
f 24/75/21 48/76/21 47/77/16 23/78/16
f 13/58/22 37/79/22 38/80/23 14/81/23
f 21/82/24 45/83/24 44/84/18 20/63/18
f 18/85/25 42/86/25 41/87/20 17/88/20
f 14/89/23 38/90/23 48/91/21 24/92/21
f 15/93/3 39/94/3 37/95/22 13/96/22
f 22/97/17 46/98/17 45/99/24 21/31/24
f 19/100/19 43/101/19 42/102/25 18/35/25
f 26/103/26 38/104/27 37/105/28 25/106/29
f 25/106/29 37/105/28 39/107/30 27/108/31
f 27/108/31 39/107/30 40/109/32 28/110/33
f 28/110/33 40/109/32 41/111/34 29/112/35
f 29/112/35 41/111/34 42/113/36 30/114/37
f 30/114/37 42/113/36 43/115/38 31/116/39
f 31/116/39 43/115/38 44/117/40 32/118/41
f 32/118/41 44/117/40 45/119/42 33/120/43
f 33/120/43 45/119/42 46/121/44 34/122/45
f 34/122/45 46/121/44 47/123/46 35/124/47
f 35/124/47 47/123/46 48/125/48 36/126/49
f 36/126/49 48/125/48 38/104/27 26/103/26
f 25/127/29 27/128/31 28/129/33 29/130/35 30/131/37 31/132/39 32/133/41 33/134/43 34/135/45 35/136/47 36/137/49 26/138/26
s 0
f 49/139/50 53/140/50 58/141/50
f 50/142/51 49/139/51 54/143/51
f 51/144/52 50/145/52 55/146/52
f 53/140/53 52/147/53 57/148/53
f 49/139/54 58/141/54 54/143/54
f 50/142/55 54/143/55 55/149/55
f 51/144/56 55/146/56 56/150/56
f 52/147/57 56/150/57 57/148/57
f 53/140/58 57/148/58 58/141/58
f 54/143/59 58/141/59 59/151/59
f 55/149/60 54/143/60 59/152/60
f 56/150/61 55/146/61 59/153/61
f 57/148/62 56/150/62 59/154/62
f 58/141/63 57/148/63 59/155/63
f 60/156/64 61/139/64 62/142/64
f 60/157/65 62/145/65 63/144/65
f 60/158/66 63/144/66 64/147/66
f 62/142/67 61/139/67 65/143/67
f 63/144/68 62/145/68 66/146/68
f 64/147/69 63/144/69 67/150/69
f 61/139/70 69/141/70 65/143/70
f 62/142/71 65/143/71 66/149/71
f 63/144/72 66/146/72 67/150/72
f 64/147/73 67/150/73 68/148/73
f 65/143/74 69/141/74 70/151/74
f 66/149/75 65/143/75 70/152/75
f 67/150/76 66/146/76 70/153/76
f 68/148/77 67/150/77 70/154/77
f 69/141/78 68/148/78 70/155/78
f 49/139/79 50/142/79 53/140/79
f 71/139/80 75/140/80 80/141/80
f 72/142/81 71/139/81 76/143/81
f 73/144/82 72/145/82 77/146/82
f 74/147/83 73/144/83 78/150/83
f 75/140/84 74/147/84 79/148/84
f 71/139/85 80/141/85 76/143/85
f 72/142/86 76/143/86 77/149/86
f 73/144/87 77/146/87 78/150/87
f 74/147/88 78/150/88 79/148/88
f 75/140/89 79/148/89 80/141/89
f 76/143/90 80/141/90 81/151/90
f 77/149/91 76/143/91 81/152/91
f 78/150/92 77/146/92 81/153/92
f 79/148/93 78/150/93 81/154/93
f 80/141/94 79/148/94 81/155/94
