# Blender 3.6.5
# www.blender.org
mtllib e_Modular_Coffee_Table_2.mtl
o e_Modular_Coffee_Table_2
v 0.395125 -0.000000 0.428801
v 0.453766 -0.000000 0.428543
v 0.395125 -0.000000 0.371154
v 0.453766 -0.000000 0.371415
v 0.395125 0.000000 -0.371027
v 0.453766 0.000000 -0.371285
v 0.395125 0.000000 -0.428673
v 0.453766 0.000000 -0.428413
v 0.453766 0.061440 0.371415
v 0.453766 0.061440 0.428543
v 0.395125 0.061440 0.428801
v 0.395125 0.061440 0.371154
v 0.453766 0.061440 -0.371285
v 0.453766 0.061440 -0.428413
v 0.395125 0.061440 -0.371027
v 0.395125 0.061440 -0.428673
v 0.496381 0.467455 0.489436
v 0.496381 0.467455 -0.495709
v 0.353821 0.056954 0.484319
v 0.212735 0.053680 0.489436
v 0.070175 0.056954 0.484319
v -0.070175 0.056954 0.484319
v -0.213471 0.056954 0.484319
v 0.496381 0.053681 -0.495709
v -0.353821 0.056954 0.484319
v -0.354558 0.467455 0.489436
v -0.212735 0.467455 0.489436
v -0.070912 0.467455 0.489436
v 0.070912 0.467455 0.489436
v 0.212735 0.467455 0.489436
v 0.496381 0.053680 0.489436
v 0.354558 0.467455 0.489436
v -0.395125 -0.000000 0.428801
v -0.453766 -0.000000 0.428543
v -0.395125 -0.000000 0.371154
v -0.453766 -0.000000 0.371415
v -0.395125 0.000000 -0.371027
v -0.453766 0.000000 -0.371285
v -0.395125 0.000000 -0.428673
v -0.453766 0.000000 -0.428413
v -0.453766 0.061440 0.371415
v -0.453766 0.061440 0.428543
v -0.395125 0.061440 0.428801
v -0.395125 0.061440 0.371154
v -0.453766 0.061440 -0.371285
v -0.453766 0.061440 -0.428413
v -0.395125 0.061440 -0.371027
v -0.395125 0.061440 -0.428673
v -0.496381 0.467455 0.489436
v -0.353821 0.056954 -0.490592
v -0.213471 0.056954 -0.490592
v -0.496381 0.467455 -0.495709
v -0.070175 0.056954 -0.490592
v 0.070175 0.056954 -0.490592
v 0.213471 0.056954 -0.490592
v -0.496381 0.053681 -0.495709
v 0.353821 0.056954 -0.490592
v 0.353821 0.464181 -0.490592
v 0.213471 0.464181 -0.490592
v 0.070175 0.464181 -0.490592
v -0.070175 0.464181 -0.490592
v -0.213471 0.464181 -0.490592
v -0.496381 0.053680 0.489436
v -0.353821 0.464181 -0.490592
v 0.354558 0.053680 0.489436
v 0.354558 0.053681 -0.495709
v 0.070912 0.053680 0.489436
v 0.070912 0.053681 -0.495709
v -0.070912 0.053680 0.489436
v -0.070912 0.053681 -0.495709
v -0.354558 0.053681 -0.495709
v -0.354558 0.467455 -0.495709
v -0.212735 0.053681 -0.495709
v -0.212735 0.467455 -0.495709
v -0.070912 0.467455 -0.495709
v 0.070912 0.467455 -0.495709
v 0.212735 0.053681 -0.495709
v 0.212735 0.467455 -0.495709
v 0.354558 0.467455 -0.495709
v -0.353821 0.464181 0.484319
v -0.354558 0.053680 0.489436
v 0.213471 0.056954 0.484319
v -0.213471 0.464181 0.484319
v -0.212735 0.053680 0.489436
v -0.070175 0.464181 0.484319
v 0.070175 0.464181 0.484319
v 0.213471 0.464181 0.484319
v 0.353821 0.464181 0.484319
vn 1.0000 -0.0000 -0.0000
vn -0.0000 -0.0000 -1.0000
vn -0.0000 -1.0000 -0.0000
vn 0.0044 -0.0000 -1.0000
vn 0.0044 -0.0000 1.0000
vn -1.0000 -0.0000 -0.0000
vn -0.0000 1.0000 -0.0026
vn -0.0026 1.0000 -0.0000
vn -0.0000 1.0000 0.0026
vn 0.0026 1.0000 -0.0000
vn 0.0078 -0.0000 1.0000
vn -0.0000 0.0078 1.0000
vn -0.0078 -0.0000 1.0000
vn -0.0000 -0.0078 1.0000
vn 0.0026 -1.0000 -0.0000
vn -0.0000 -1.0000 0.0026
vn -0.0026 -1.0000 -0.0000
vn -0.0000 -1.0000 -0.0026
vn -0.0044 -0.0000 -1.0000
vn -0.0044 -0.0000 1.0000
vn -0.9759 -0.2180 0.0020
vn -0.9761 -0.2172 0.0008
vn -0.9759 -0.2180 -0.0020
vn -0.9751 -0.2220 0.0008
vn 0.9759 -0.2180 -0.0020
vn 0.9761 -0.2172 -0.0008
vn 0.9759 -0.2180 0.0020
vn 0.9751 -0.2220 -0.0008
vn 0.9898 -0.0000 -0.1425
vn -0.9898 -0.0000 -0.1425
vn 0.9902 -0.0073 0.1397
vn 0.9909 -0.0015 0.1349
vn 0.9902 0.0073 0.1396
vn 0.9887 -0.0015 0.1501
vn -0.9902 0.0073 0.1396
vn -0.9909 0.0015 0.1349
vn -0.9902 -0.0073 0.1396
vn -0.9887 0.0015 0.1501
vn 0.9902 -0.0073 0.1396
vn -0.9902 0.0073 0.1397
vn 0.9756 0.2196 -0.0026
vn 0.9753 0.2210 -0.0022
vn 0.9756 0.2196 0.0026
vn 0.9759 0.2182 -0.0022
vn -0.9756 0.2196 0.0026
vn -0.9753 0.2210 0.0022
vn -0.9756 0.2196 -0.0026
vn -0.9759 0.2182 0.0022
vt 0.957075 0.956831
vt 0.961321 0.960515
vt 0.960947 0.961894
vt 0.955787 0.957054
vt 0.961321 0.960515
vt 0.211663 0.966749
vt 0.881749 0.957054
vt 0.886908 0.961894
vt 0.955787 0.957054
vt 0.887282 0.960515
vt 0.883037 0.956831
vt 0.960947 0.961894
vt 0.881749 0.957054
vt 0.881749 0.957054
vt 0.883037 0.956830
vt 0.953710 0.953465
vt 0.957955 0.957150
vt 0.953710 0.953465
vt 0.957581 0.958528
vt 0.952422 0.953689
vt 0.952422 0.953689
vt 0.952422 0.953689
s 0
usemtl Palette
f 31/1/1 24/2/1 18/3/1 17/4/1
f 70/5/2 73/2/2 74/3/2 75/3/2
f 4/6/3 2/6/3 1/6/3 3/6/3
f 8/6/3 6/6/3 5/6/3 7/6/3
f 3/6/4 12/6/4 9/6/4 4/6/4
f 2/6/5 10/6/5 11/6/5 1/6/5
f 5/6/6 15/6/6 16/6/6 7/6/6
f 8/6/1 14/6/1 13/6/1 6/6/1
f 1/6/6 11/6/6 12/6/6 3/6/6
f 4/6/1 9/6/1 10/6/1 2/6/1
f 7/6/4 16/6/4 14/6/4 8/6/4
f 6/6/5 13/6/5 15/6/5 5/6/5
f 86/7/7 60/8/8 61/8/9 85/7/10
f 28/9/11 27/4/12 84/1/13 69/1/14
f 30/4/11 29/9/12 67/1/13 20/1/14
f 51/10/2 50/10/2 64/8/2 62/8/2
f 86/7/11 85/7/12 22/11/13 21/11/14
f 77/5/2 68/5/2 76/3/2 78/12/2
f 57/10/2 55/10/2 59/8/2 58/8/2
f 17/4/8 18/3/8 79/3/9 32/4/10
f 83/13/11 80/13/12 25/11/13 23/11/14
f 88/14/11 87/14/12 82/15/13 19/15/14
f 24/2/2 66/5/2 79/3/2 18/3/2
f 21/11/15 22/11/16 53/10/17 54/10/18
f 63/1/6 49/4/6 52/3/6 56/2/6
f 17/4/11 32/4/12 65/1/13 31/1/11
f 36/6/3 35/6/3 33/6/3 34/6/3
f 40/6/3 39/6/3 37/6/3 38/6/3
f 35/6/19 36/6/19 41/6/19 44/6/19
f 34/6/20 33/6/20 43/6/20 42/6/20
f 37/6/1 39/6/1 48/6/1 47/6/1
f 40/6/6 38/6/6 45/6/6 46/6/6
f 33/6/1 35/6/1 44/6/1 43/6/1
f 36/6/6 34/6/6 42/6/6 41/6/6
f 39/6/19 40/6/19 46/6/19 48/6/19
f 38/6/20 37/6/20 47/6/20 45/6/20
f 31/1/15 65/1/16 66/5/17 24/2/15
f 19/15/15 82/15/16 55/10/17 57/10/18
f 28/9/7 75/3/8 74/3/9 27/4/10
f 71/2/2 56/2/2 52/3/2 72/3/2
f 30/4/7 78/12/8 76/3/9 29/9/10
f 88/14/7 58/8/8 59/8/9 87/14/10
f 26/4/11 49/4/13 63/1/13 81/1/14
f 23/11/15 25/11/16 50/10/17 51/10/18
f 69/1/15 84/1/16 73/2/17 70/5/18
f 26/4/7 72/3/8 52/3/10 49/4/10
f 20/1/15 67/1/16 68/5/17 77/5/18
f 81/1/15 63/1/17 56/2/17 71/2/18
f 83/13/7 62/8/8 64/8/9 80/13/10
f 54/10/2 53/10/2 61/8/2 60/8/2
f 19/16/21 57/17/22 66/17/23 65/16/24
f 21/18/21 54/17/22 68/17/23 67/18/24
f 53/17/25 22/18/26 69/18/27 70/17/28
f 64/19/29 50/17/29 71/17/29 72/19/29
f 51/17/30 62/19/30 74/19/30 73/17/30
f 61/19/29 53/17/29 70/17/29 75/19/29
f 54/17/30 60/19/30 76/19/30 68/17/30
f 59/19/29 55/17/29 77/17/29 78/19/29
f 57/17/30 58/19/30 79/19/30 66/17/30
f 25/18/31 80/20/32 26/20/33 81/18/34
f 55/17/25 82/16/26 20/16/27 77/17/28
f 83/20/35 23/18/36 84/18/37 27/20/38
f 22/18/39 85/21/32 28/21/33 69/18/34
f 86/21/35 21/18/36 67/18/37 29/21/38
f 82/16/39 87/22/32 30/22/33 20/16/34
f 88/22/40 19/16/36 65/16/37 32/22/38
f 80/20/41 64/19/42 72/19/43 26/20/44
f 62/19/45 83/20/46 27/20/47 74/19/48
f 85/21/41 61/19/42 75/19/43 28/21/44
f 60/19/45 86/21/46 29/21/47 76/19/48
f 87/22/41 59/19/42 78/19/43 30/22/44
f 58/19/45 88/22/46 32/22/47 79/19/48
f 50/17/25 25/18/26 81/18/27 71/17/28
f 23/18/21 51/17/22 73/17/23 84/18/24
