# Blender 3.6.5
# www.blender.org
mtllib e_Modular_Sofa_3.mtl
o e_Modular_Sofa_3
v 0.395125 -0.000000 0.428801
v 0.453766 -0.000000 0.428543
v 0.395125 -0.000000 0.371154
v 0.453766 -0.000000 0.371415
v 0.395125 0.000000 -0.371027
v 0.453766 0.000000 -0.371285
v 0.395125 0.000000 -0.428673
v 0.453766 0.000000 -0.428413
v 0.453766 0.040223 0.371415
v 0.453766 0.040223 0.428543
v 0.395125 0.040223 0.428801
v 0.395125 0.040223 0.371154
v 0.453766 0.040223 -0.371285
v 0.453766 0.040223 -0.428413
v 0.395125 0.040223 -0.371027
v 0.395125 0.040223 -0.428673
v 0.482027 0.219914 0.489436
v 0.496381 0.219953 0.474966
v 0.496381 0.219953 -0.479279
v 0.482027 0.219914 -0.495709
v 0.471835 0.030442 -0.469562
v 0.482027 0.053681 -0.495709
v 0.479042 0.037260 -0.486666
v 0.496381 0.053719 -0.479279
v 0.489273 0.037287 -0.476351
v 0.496381 0.053719 0.474966
v 0.489273 0.037287 0.472038
v 0.471837 0.030442 0.465248
v 0.482027 0.053680 0.489436
v 0.479042 0.037260 0.482352
v 0.497981 0.466700 0.477452
v 0.474624 0.480281 -0.472387
v 0.498706 0.460621 0.475936
v 0.482741 0.460600 0.492024
v 0.474626 0.480281 0.468073
v 0.484232 0.466683 0.491302
v 0.481958 0.230683 0.489436
v 0.471637 0.207947 0.464775
v 0.496312 0.230721 0.474966
v 0.496312 0.230721 -0.479279
v 0.471636 0.207947 -0.469090
v 0.481957 0.230683 -0.495709
v 0.454128 0.488292 0.449180
v 0.454126 0.488293 -0.449503
v -0.395125 -0.000000 0.428801
v -0.453766 -0.000000 0.428543
v -0.395125 -0.000000 0.371154
v -0.453766 -0.000000 0.371415
v -0.395125 0.000000 -0.371027
v -0.453766 0.000000 -0.371285
v -0.395125 0.000000 -0.428673
v -0.453766 0.000000 -0.428413
v -0.453766 0.040223 0.371415
v -0.453766 0.040223 0.428543
v -0.395125 0.040223 0.428801
v -0.395125 0.040223 0.371154
v -0.453766 0.040223 -0.371285
v -0.453766 0.040223 -0.428413
v -0.395125 0.040223 -0.371027
v -0.395125 0.040223 -0.428673
v -0.482027 0.219914 0.489436
v -0.496381 0.219953 0.474966
v -0.496381 0.219953 -0.479279
v -0.482027 0.219914 -0.495709
v -0.471835 0.030442 -0.469562
v -0.482027 0.053681 -0.495709
v -0.479042 0.037260 -0.486666
v -0.496381 0.053719 -0.479279
v -0.489273 0.037287 -0.476351
v -0.496381 0.053719 0.474966
v -0.489273 0.037287 0.472038
v -0.471837 0.030442 0.465248
v -0.482027 0.053680 0.489436
v -0.479042 0.037260 0.482352
v 0.484332 0.466713 -0.497192
v -0.474624 0.480281 -0.472387
v 0.482797 0.460636 -0.498232
v 0.498739 0.460620 -0.480168
v -0.474626 0.480281 0.468073
v 0.498026 0.466696 -0.481664
v -0.481958 0.230683 0.489436
v -0.471637 0.207947 0.464775
v -0.496312 0.230721 0.474966
v -0.496312 0.230721 -0.479279
v -0.471636 0.207947 -0.469090
v -0.481957 0.230683 -0.495709
v -0.456178 0.488292 0.449180
v -0.456177 0.488293 -0.449503
v 0.378736 0.509758 -0.332318
v -0.369475 0.496776 -0.329694
v 0.377778 0.511882 -0.250653
v 0.378494 0.510164 -0.125288
v 0.376875 0.517283 -0.009387
v 0.395956 0.514028 0.269273
v -0.455984 0.488290 0.298963
v -0.456414 0.488938 -0.004647
v -0.373279 0.512074 -0.010154
v -0.362586 0.497988 0.330476
v -0.324259 0.488345 -0.449305
v -0.049419 0.489006 -0.449738
v 0.322173 0.488067 0.448896
v 0.170392 0.510456 -0.350948
v 0.298463 0.517357 0.349519
v 0.163657 0.528308 0.282769
v 0.040469 0.517413 0.345901
v -0.079541 0.512881 0.288930
v 0.032787 0.519855 0.143812
v -0.111565 0.519236 0.155813
v 0.267498 0.511626 0.015509
v 0.161759 0.518138 0.109812
v 0.159044 0.529318 -0.107318
v 0.047378 0.520215 -0.107319
v -0.064287 0.518069 -0.107318
v -0.161806 0.511741 -0.011278
v 0.270492 0.517150 -0.246655
v 0.050758 0.511373 -0.237002
v 0.376321 0.512732 0.322047
v 0.453713 0.487951 -0.118083
v 0.371145 0.511383 0.121134
v -0.455900 0.488126 -0.301835
v -0.289077 0.513343 0.244032
v -0.300491 0.520684 0.007704
v -0.378782 0.529322 -0.132622
v -0.394474 0.514952 0.123400
v 0.409062 0.500881 -0.290237
v 0.409520 0.507399 -0.006143
v 0.454314 0.488961 0.133126
v -0.067241 0.488846 0.449431
v 0.296661 0.518257 -0.351731
v -0.056636 0.510990 -0.349159
v -0.056371 0.510247 0.338827
v 0.170161 0.506582 0.339414
v 0.329060 0.511514 0.196482
v 0.304601 0.530538 0.114583
v -0.336111 0.517388 0.104207
v 0.064287 0.511671 0.013718
v -0.047379 0.530730 0.013717
v -0.268685 0.517928 -0.116856
v -0.159833 0.529067 -0.235891
v -0.285629 0.513231 -0.260348
v 0.303583 0.520687 -0.121860
v 0.164106 0.531671 -0.268371
v -0.059966 0.520149 -0.272592
v -0.177180 0.518060 -0.351317
v -0.173864 0.525892 0.363964
v 0.059096 0.506291 0.379965
v 0.178897 0.495539 0.387179
v 0.326364 0.506899 0.377224
v 0.325067 0.506980 -0.382146
v 0.163516 0.488065 -0.449102
v 0.048991 0.516116 -0.367092
v -0.177286 0.506688 -0.384283
v -0.308277 0.493114 -0.394015
v 0.484627 0.402664 -0.498592
v 0.484721 0.305778 -0.498592
v 0.484627 0.402664 0.492313
v 0.484721 0.305778 0.492313
v 0.499065 0.402703 0.477758
v 0.499159 0.305817 0.477758
v 0.499065 0.402703 -0.482065
v 0.499159 0.305817 -0.482065
v -0.484627 0.402664 -0.498592
v -0.484721 0.305778 -0.498592
v -0.484721 0.305778 0.492313
v -0.484627 0.402664 0.492313
v -0.499159 0.305817 0.477758
v -0.499065 0.402703 0.477758
v -0.499159 0.305817 -0.482065
v -0.499065 0.402703 -0.482065
v 0.482055 0.457620 -0.496009
v 0.480054 0.468413 -0.491376
v 0.492066 0.468450 -0.477618
v 0.496418 0.457658 -0.479569
v 0.496418 0.457658 0.475257
v 0.492061 0.468455 0.473303
v 0.480049 0.468425 0.485409
v 0.482055 0.457620 0.489736
v -0.480054 0.468413 -0.491376
v -0.482055 0.457620 -0.496009
v -0.496418 0.457658 -0.479569
v -0.492066 0.468450 -0.477618
v -0.492061 0.468455 0.473303
v -0.496418 0.457658 0.475257
v -0.482055 0.457620 0.489736
v -0.480049 0.468425 0.485409
v -0.498739 0.460620 -0.480168
v -0.498026 0.466696 -0.481664
v -0.484332 0.466713 -0.497192
v -0.482797 0.460636 -0.498232
v -0.482741 0.460600 0.492024
v -0.484232 0.466683 0.491302
v -0.497981 0.466700 0.477452
v -0.498706 0.460621 0.475936
v 0.499396 0.234614 0.478816
v 0.497957 0.228684 0.475217
v 0.482016 0.228663 0.491282
v 0.485608 0.234597 0.492705
v 0.485708 0.234627 -0.498598
v 0.482072 0.228699 -0.497488
v 0.497990 0.228683 -0.479451
v 0.499441 0.234610 -0.483025
v 0.466950 0.227007 -0.480550
v 0.480054 0.237800 -0.491376
v 0.492066 0.237837 -0.477618
v 0.480863 0.227044 -0.464624
v 0.480863 0.227044 0.460282
v 0.492061 0.237842 0.473303
v 0.480049 0.237812 0.485409
v 0.466950 0.227007 0.474307
v -0.480054 0.237800 -0.491376
v -0.466950 0.227007 -0.480550
v -0.480863 0.227044 -0.464624
v -0.492066 0.237837 -0.477618
v -0.492061 0.237842 0.473303
v -0.480863 0.227044 0.460282
v -0.466950 0.227007 0.474307
v -0.480049 0.237812 0.485409
v -0.497990 0.228683 -0.479451
v -0.499441 0.234610 -0.483025
v -0.485708 0.234627 -0.498598
v -0.482072 0.228699 -0.497488
v -0.482016 0.228663 0.491282
v -0.485608 0.234597 0.492705
v -0.499396 0.234614 0.478816
v -0.497957 0.228684 0.475217
vn -0.0000 0.0469 0.9989
vn 0.7531 -0.0000 -0.6579
vn -0.0000 -0.0000 -1.0000
vn -0.0000 -1.0000 -0.0000
vn 0.0044 -0.0000 -1.0000
vn 0.0044 -0.0000 1.0000
vn -1.0000 -0.0000 -0.0000
vn 1.0000 -0.0000 -0.0000
vn 0.7099 -0.0000 0.7043
vn -0.0000 -0.9289 0.3703
vn 0.2638 -0.9291 -0.2592
vn 0.6661 -0.4274 -0.6113
vn 0.2638 -0.9291 0.2592
vn 0.6521 -0.3972 0.6458
vn 0.3654 -0.9308 -0.0000
vn 0.9178 -0.3970 -0.0000
vn -0.0000 -0.3961 0.9182
vn -0.0000 -0.9289 -0.3703
vn -0.0000 -0.4824 -0.8759
vn -0.0000 -0.0000 1.0000
vn 0.4203 0.8049 0.4190
vn -0.0000 -0.0383 0.9993
vn 0.9993 -0.0379 -0.0000
vn 0.5614 0.8276 -0.0000
vn 0.7083 0.0661 0.7028
vn 0.9988 0.0481 -0.0000
vn -0.7514 0.0660 -0.6566
vn -0.0000 -0.7604 -0.6495
vn 0.5047 -0.7433 -0.4391
vn 0.4821 -0.7354 0.4762
vn 0.6782 -0.7348 -0.0000
vn -0.0000 -0.7352 0.6778
vn -0.4369 0.8136 -0.3836
vn -0.7531 -0.0000 -0.6579
vn -0.0044 -0.0000 -1.0000
vn -0.0044 -0.0000 1.0000
vn -0.7099 -0.0000 0.7043
vn -0.2638 -0.9291 -0.2592
vn -0.6661 -0.4274 -0.6113
vn -0.2638 -0.9291 0.2592
vn -0.6521 -0.3972 0.6458
vn -0.3654 -0.9308 -0.0000
vn -0.9178 -0.3970 -0.0000
vn -0.7090 -0.0530 0.7032
vn -0.9993 -0.0379 -0.0000
vn 0.7477 -0.0753 -0.6597
vn -0.7083 0.0661 0.7028
vn -0.4203 0.8049 0.4190
vn -0.0000 0.0469 -0.9989
vn -0.5047 -0.7433 -0.4391
vn -0.4821 -0.7354 0.4762
vn -0.6782 -0.7348 -0.0000
vn -0.0000 1.0000 -0.0000
vn -0.0022 0.9672 0.2540
vn 0.3989 0.9170 0.0022
vn -0.0824 0.9875 -0.1346
vn -0.0944 0.9909 0.0957
vn -0.0514 0.9982 -0.0297
vn 0.1024 0.9947 0.0041
vn -0.1511 0.9779 0.1445
vn 0.1093 0.9930 -0.0454
vn -0.1516 0.9740 -0.1680
vn -0.2562 0.9555 0.1461
vn -0.3916 0.9201 0.0025
vn -0.2715 0.9603 -0.0638
vn -0.1367 0.9854 0.1018
vn 0.2776 0.9607 0.0026
vn 0.3187 0.9478 -0.0115
vn 0.2875 0.9563 -0.0527
vn 0.3929 0.9196 -0.0046
vn 0.2681 0.9614 -0.0621
vn 0.0002 0.9422 -0.3352
vn 0.1397 0.9901 0.0128
vn 0.0475 0.9980 -0.0409
vn 0.0111 0.9970 0.0770
vn 0.1362 0.9889 -0.0588
vn -0.0390 0.9977 0.0556
vn -0.1176 0.9917 0.0525
vn 0.1681 0.9847 0.0460
vn -0.1455 0.9859 -0.0828
vn 0.2712 0.9609 0.0553
vn -0.0863 0.9841 -0.1555
vn -0.0035 0.9980 -0.0636
vn 0.0025 0.9966 0.0818
vn -0.0222 0.9997 -0.0141
vn -0.0003 0.9989 0.0478
vn 0.0907 0.9957 -0.0199
vn -0.1065 0.9242 0.3667
vn 0.0953 0.9330 0.3469
vn 0.1303 0.9914 -0.0082
vn -0.1538 0.9871 0.0445
vn 0.0499 0.9985 0.0229
vn -0.0612 0.9656 -0.2527
vn -0.1659 0.9854 0.0382
vn -0.0687 0.9902 -0.1214
vn 0.0602 0.9914 -0.1160
vn -0.1096 0.9909 -0.0780
vn -0.1409 0.9896 -0.0303
vn -0.0016 0.9168 0.3993
vn 0.1719 0.9639 0.2034
vn 0.0949 0.9904 -0.1005
vn -0.0575 0.9664 0.2506
vn -0.0011 0.9630 -0.2693
vn 0.0249 0.9447 -0.3270
vn 0.0051 0.9483 -0.3172
vn 0.0754 0.9710 -0.2268
vn -0.0027 0.9640 -0.2658
vn 0.0610 0.9760 -0.2090
vn -0.0987 0.9935 -0.0572
vn -0.0003 0.9963 -0.0859
vn -0.0083 0.9979 -0.0647
vn 0.2624 0.9637 0.0489
vn 0.1673 0.9821 0.0864
vn -0.1032 0.9947 -0.0002
vn -0.0290 0.9988 0.0386
vn -0.1154 0.9933 -0.0087
vn -0.0565 0.9846 -0.1653
vn -0.0992 0.9951 0.0013
vn -0.4657 0.8850 -0.0032
vn 0.3078 0.9512 -0.0211
vn 0.2822 0.9593 0.0115
vn 0.2734 0.9619 0.0013
vn 0.2943 0.9541 -0.0545
vn 0.0922 0.9956 -0.0132
vn -0.1331 0.9908 -0.0260
vn 0.0333 0.9992 -0.0220
vn -0.0619 0.9974 0.0367
vn 0.0944 0.9954 0.0150
vn 0.0884 0.9940 0.0651
vn 0.0211 0.9996 -0.0171
vn -0.0810 0.9934 0.0814
vn -0.0191 0.9947 -0.1014
vn 0.0636 0.9980 -0.0059
vn -0.0802 0.9842 -0.1578
vn 0.1682 0.9855 -0.0213
vn -0.1648 0.9863 0.0053
vn 0.0228 0.9992 0.0324
vn 0.2606 0.9546 0.1439
vn -0.0439 0.9988 -0.0195
vn -0.0125 0.9991 0.0417
vn 0.0200 0.9997 -0.0172
vn -0.0455 0.9741 0.2214
vn -0.0800 0.9928 0.0896
vn -0.0442 0.9989 0.0138
vn 0.0307 0.9906 -0.1332
vn 0.1087 0.9938 -0.0246
vn 0.1267 0.9911 0.0420
vn 0.0773 0.9671 -0.2426
vn 0.0676 0.9971 0.0354
vn 0.0511 0.9934 -0.1024
vn -0.1468 0.9815 -0.1229
vn 0.0001 0.9438 -0.3305
vn 0.0023 0.9689 0.2475
vn 0.0831 0.9685 0.2346
vn -0.0763 0.9486 0.3073
vn 0.0918 0.9838 -0.1537
vn -0.0615 0.9740 -0.2179
vn 0.0740 0.9825 0.1709
vn -0.0843 0.9722 -0.2185
vn -0.0361 0.9447 -0.3258
vn -0.0736 0.9428 -0.3250
vn -0.0000 0.9175 0.3978
vn -0.4047 0.9144 -0.0000
vn -0.0012 0.9435 -0.3314
vn 0.3667 0.9303 -0.0000
vn -0.9988 0.0481 -0.0000
vn -0.5614 0.8276 -0.0000
vn -0.0000 0.8480 -0.5300
vn -0.0000 -0.0384 -0.9993
vn -0.7521 -0.0529 -0.6569
vn -0.0000 0.8254 0.5645
vn 0.7090 -0.0530 0.7032
vn -0.7531 0.0007 -0.6579
vn -1.0000 0.0010 -0.0000
vn -0.7099 0.0007 0.7043
vn 0.7531 0.0007 -0.6579
vn 1.0000 0.0010 -0.0000
vn 0.7099 0.0007 0.7043
vn 0.7521 -0.0529 -0.6569
vn 0.7514 0.0660 -0.6566
vn -0.0000 -0.5932 -0.8050
vn -0.6167 -0.5715 -0.5413
vn -0.0000 0.9599 -0.2805
vn 0.5802 -0.5772 0.5746
vn -0.7893 -0.6141 -0.0000
vn -0.1773 0.9717 -0.1563
vn -0.2833 0.9590 -0.0000
vn 0.1773 0.9717 -0.1563
vn 0.4369 0.8136 -0.3836
vn 0.7069 -0.0903 0.7015
vn 0.9931 0.1175 -0.0000
vn -0.7477 -0.0753 -0.6597
vn -0.7069 -0.0903 0.7015
vn -0.9931 0.1175 -0.0000
vn -0.0000 0.1687 -0.9857
vn -0.0000 0.1180 0.9930
vn 0.1684 0.9712 0.1688
vn -0.0000 0.9590 0.2835
vn -0.1684 0.9712 0.1688
vn 0.7893 -0.6141 -0.0000
vn -0.0000 -0.6091 0.7931
vn 0.6167 -0.5716 -0.5413
vn 0.2833 0.9590 -0.0000
vn -0.5802 -0.5772 0.5746
vn 0.6475 -0.5038 -0.5718
vn -0.0000 -0.9950 -0.0994
vn -0.0555 -0.9973 -0.0482
vn -0.0000 0.9156 -0.4022
vn 0.0525 -0.9974 0.0501
vn -0.0953 -0.9954 -0.0000
vn -0.2499 0.9430 -0.2200
vn -0.4018 0.9157 -0.0000
vn 0.2499 0.9430 -0.2200
vn 0.6091 -0.5140 0.6040
vn 0.9716 -0.2368 -0.0000
vn -0.6475 -0.5038 -0.5718
vn -0.6091 -0.5140 0.6040
vn -0.9716 -0.2368 -0.0000
vn -0.0000 -0.1840 -0.9829
vn -0.0000 -0.2332 0.9724
vn 0.2363 0.9425 0.2362
vn -0.0000 0.9151 0.4032
vn -0.2363 0.9425 0.2362
vn 0.0953 -0.9954 -0.0000
vn -0.0000 -0.9953 0.0971
vn 0.0555 -0.9973 -0.0482
vn 0.4018 0.9157 -0.0000
vn -0.0525 -0.9974 0.0501
vt 0.706749 0.872920
vt 0.706749 0.872920
vt 0.964087 0.965212
vt 0.964500 0.963861
vt 0.964686 0.963881
vt 0.964312 0.965259
vt 0.878009 0.966749
vt 0.960452 0.960382
vt 0.959194 0.960649
vt 0.959152 0.960419
vt 0.960441 0.960196
vt 0.960577 0.960174
vt 0.960736 0.960198
vt 0.964681 0.963600
vt 0.964722 0.963737
vt 0.964548 0.963720
vt 0.960736 0.960202
vt 0.960584 0.960348
vt 0.964677 0.963600
vt 0.706941 0.872967
vt 0.706780 0.872927
vt 0.706815 0.873119
vt 0.706749 0.872920
vt 0.706791 0.873149
vt 0.711683 0.877713
vt 0.711710 0.877691
vt 0.711848 0.877579
vt 0.706791 0.873149
vt 0.711683 0.877713
vt 0.711908 0.877759
vt 0.711848 0.877579
vt 0.706941 0.872968
vt 0.711898 0.877730
vt 0.711898 0.877730
vt 0.706815 0.873119
vt 0.706780 0.872927
vt 0.706941 0.872968
vt 0.706941 0.872968
vt 0.707241 0.872913
vt 0.707350 0.873352
vt 0.708008 0.873474
vt 0.711868 0.877269
vt 0.711650 0.876888
vt 0.711286 0.876409
vt 0.708248 0.873507
vt 0.708891 0.874263
vt 0.707729 0.873033
vt 0.709191 0.874412
vt 0.709729 0.875032
vt 0.710471 0.875627
vt 0.710482 0.875741
vt 0.709708 0.874904
vt 0.711025 0.876829
vt 0.709587 0.875172
vt 0.707753 0.873758
vt 0.711818 0.876912
vt 0.711320 0.876760
vt 0.711848 0.877578
vt 0.711206 0.876328
vt 0.710039 0.875877
vt 0.710473 0.875629
vt 0.709591 0.875124
vt 0.708836 0.874454
vt 0.709005 0.874228
vt 0.711848 0.877579
vt 0.711887 0.877356
vt 0.710491 0.875646
vt 0.711208 0.876330
vt 0.710357 0.875519
vt 0.711150 0.876275
vt 0.709779 0.874967
vt 0.709773 0.874962
vt 0.709630 0.874824
vt 0.710358 0.875519
vt 0.709623 0.874818
vt 0.709044 0.874266
vt 0.710358 0.875519
vt 0.709623 0.874818
vt 0.709097 0.874316
vt 0.708898 0.874126
vt 0.708880 0.874109
vt 0.708496 0.873743
vt 0.707962 0.873245
vt 0.707995 0.873268
vt 0.707555 0.872961
vt 0.707534 0.872817
vt 0.707599 0.872887
vt 0.707559 0.872967
vt 0.707417 0.872942
vt 0.711794 0.876988
vt 0.711806 0.877007
vt 0.711353 0.876474
vt 0.711916 0.877150
vt 0.711152 0.876277
vt 0.711944 0.877033
vt 0.711395 0.876509
vt 0.711902 0.877006
vt 0.706920 0.872973
vt 0.707148 0.872931
vt 0.706941 0.872967
vt 0.707239 0.872900
vt 0.707239 0.872900
vt 0.711880 0.877303
vt 0.711848 0.877579
vt 0.711846 0.877594
vt 0.711893 0.877305
vt 0.707717 0.872999
vt 0.707350 0.873352
vt 0.711439 0.877195
vt 0.710338 0.875845
vt 0.711017 0.876798
vt 0.706941 0.872968
vt 0.707763 0.873739
vt 0.706791 0.873149
vt 0.711683 0.877713
vt 0.711710 0.877691
vt 0.711683 0.881078
vt 0.711908 0.881125
vt 0.711898 0.881095
vt 0.711710 0.881056
vt 0.711683 0.881078
vt 0.711898 0.881095
vt 0.706749 0.876285
vt 0.706791 0.876514
vt 0.711683 0.881078
vt 0.706815 0.876485
vt 0.711710 0.881056
vt 0.706780 0.876293
vt 0.706791 0.876514
vt 0.706749 0.876285
s 0
usemtl Palette
f 177/1/1 184/2/1 165/1/1 156/1/1
f 19/3/2 24/4/2 22/5/2 20/6/2
f 64/6/3 20/6/3 22/5/3 66/5/3
f 4/7/4 2/7/4 1/7/4 3/7/4
f 8/7/4 6/7/4 5/7/4 7/7/4
f 3/7/5 12/7/5 9/7/5 4/7/5
f 2/7/6 10/7/6 11/7/6 1/7/6
f 5/7/7 15/7/7 16/7/7 7/7/7
f 8/7/8 14/7/8 13/7/8 6/7/8
f 1/7/7 11/7/7 12/7/7 3/7/7
f 4/7/8 9/7/8 10/7/8 2/7/8
f 7/7/5 16/7/5 14/7/5 8/7/5
f 6/7/6 13/7/6 15/7/6 5/7/6
f 26/8/9 18/9/9 17/10/9 29/11/9
f 18/9/8 26/8/8 24/4/8 19/3/8
f 30/12/10 74/12/10 72/13/10 28/13/10
f 21/14/11 23/15/11 25/16/11
f 25/16/12 23/15/12 22/5/12 24/4/12
f 28/17/13 27/18/13 30/12/13
f 30/12/14 27/18/14 26/8/14 29/11/14
f 28/17/15 21/19/15 25/16/15 27/18/15
f 27/18/16 25/16/16 24/4/16 26/8/16
f 29/11/17 73/11/17 74/12/17 30/12/17
f 65/14/18 67/15/18 23/15/18 21/14/18
f 67/15/19 66/5/19 22/5/19 23/15/19
f 65/19/4 21/19/4 28/13/4 72/13/4
f 61/10/20 73/11/20 29/11/20 17/10/20
f 35/20/21 176/21/21 175/22/21
f 157/1/22 164/1/22 81/23/22 37/23/22
f 39/24/23 40/25/23 161/25/23 159/24/23
f 172/26/24 32/27/24 35/20/24 175/22/24
f 156/1/25 158/24/25 174/24/25 177/1/25
f 158/24/26 160/25/26 173/25/26 174/28/26
f 169/29/27 180/25/27 179/30/27 162/30/27
f 85/31/28 86/30/28 42/30/28 41/31/28
f 42/30/29 40/25/29 41/31/29
f 39/24/30 37/23/30 38/32/30
f 38/32/31 41/31/31 40/25/31 39/24/31
f 37/23/32 81/23/32 82/32/32 38/32/32
f 76/27/33 178/33/33 181/26/33
f 63/3/34 64/6/34 66/5/34 68/4/34
f 48/7/4 47/7/4 45/7/4 46/7/4
f 52/7/4 51/7/4 49/7/4 50/7/4
f 47/7/35 48/7/35 53/7/35 56/7/35
f 46/7/36 45/7/36 55/7/36 54/7/36
f 49/7/8 51/7/8 60/7/8 59/7/8
f 52/7/7 50/7/7 57/7/7 58/7/7
f 45/7/8 47/7/8 56/7/8 55/7/8
f 48/7/7 46/7/7 54/7/7 53/7/7
f 51/7/35 52/7/35 58/7/35 60/7/35
f 50/7/36 49/7/36 59/7/36 57/7/36
f 70/8/37 73/11/37 61/10/37 62/9/37
f 62/9/7 63/3/7 68/4/7 70/8/7
f 65/14/38 69/16/38 67/15/38
f 69/16/39 68/4/39 66/5/39 67/15/39
f 72/17/40 74/12/40 71/18/40
f 74/12/41 73/11/41 70/8/41 71/18/41
f 72/17/42 71/18/42 69/16/42 65/19/42
f 71/18/43 70/8/43 68/4/43 69/16/43
f 81/23/44 164/1/44 166/24/44 83/24/44
f 83/24/45 166/24/45 168/25/45 84/25/45
f 78/29/46 77/30/46 75/34/46 80/26/46
f 165/1/47 184/1/47 183/24/47 167/24/47
f 79/20/48 182/35/48 185/36/48
f 162/30/49 179/30/49 170/30/49 154/30/49
f 86/30/50 85/31/50 84/25/50
f 83/24/51 82/32/51 81/23/51
f 82/32/52 83/24/52 84/25/52 85/31/52
f 63/3/53 62/9/53 61/10/53 17/10/53 18/9/53 19/3/53 20/6/53 64/6/53
f 101/37/54 43/38/54 148/39/54
f 43/38/55 127/40/55 94/41/55
f 153/42/56 90/43/56 140/44/56
f 121/45/57 124/46/57 98/47/57
f 135/48/58 97/49/58 124/46/58
f 138/50/59 123/51/59 122/52/59
f 123/51/60 97/49/60 122/52/60
f 140/44/61 123/51/61 138/50/61
f 90/43/62 120/53/62 123/51/62
f 123/51/63 96/54/63 97/49/63
f 95/55/64 124/46/64 96/54/64
f 96/54/65 124/46/65 97/49/65
f 95/55/66 98/47/66 124/46/66
f 89/56/67 125/57/67 44/58/67
f 91/59/68 118/60/68 125/57/68
f 92/61/69 126/62/69 118/60/69
f 126/62/70 127/63/70 118/60/70
f 94/41/71 127/63/71 119/64/71
f 150/27/72 32/27/72 76/27/72 99/65/72 100/66/72
f 92/61/73 91/59/73 141/67/73
f 91/59/74 115/68/74 141/67/74
f 113/69/75 139/70/75 114/71/75
f 92/61/76 141/67/76 93/72/76
f 93/72/77 141/67/77 109/73/77
f 111/74/78 136/75/78 110/76/78
f 112/77/79 137/78/79 136/75/79
f 113/69/80 114/71/80 137/78/80
f 93/72/81 134/79/81 119/64/81
f 93/72/82 109/73/82 134/79/82
f 110/76/83 136/75/83 107/80/83
f 107/80/84 137/78/84 108/81/84
f 119/64/85 133/82/85 94/41/85
f 107/80/86 108/81/86 106/83/86
f 133/82/87 104/84/87 103/85/87
f 104/84/88 132/86/88 103/85/88
f 104/84/89 105/87/89 132/86/89
f 131/88/90 106/83/90 145/89/90
f 145/89/91 121/45/91 98/47/91
f 91/59/92 129/90/92 115/68/92
f 129/90/93 102/91/93 142/92/93
f 142/92/94 151/93/94 116/94/94
f 151/93/95 130/95/95 143/96/95
f 130/95/96 144/97/96 143/96/96
f 144/97/97 140/44/97 139/70/97
f 98/47/98 87/98/98 145/89/98
f 87/98/99 128/99/99 145/89/99
f 145/89/100 128/99/100 131/88/100
f 101/100/101 147/101/101 146/102/101
f 101/100/102 148/39/102 147/101/102
f 150/27/103 149/103/103 44/104/103
f 150/105/104 129/90/104 149/103/104
f 100/66/105 151/93/105 150/105/105
f 151/93/106 102/91/106 150/105/106
f 99/65/107 152/106/107 100/66/107
f 100/66/108 144/97/108 130/95/108
f 99/65/109 153/42/109 152/106/109
f 99/65/110 88/104/110 153/42/110
f 153/42/111 88/27/111 90/43/111
f 126/62/112 93/72/112 119/64/112 127/63/112
f 117/107/113 43/38/113 94/41/113
f 95/55/114 87/108/114 98/47/114
f 121/45/115 135/48/115 124/46/115
f 135/48/116 122/52/116 97/49/116
f 140/44/117 90/43/117 123/51/117
f 90/43/118 88/109/118 120/53/118
f 123/51/119 120/53/119 96/110/119
f 89/56/120 91/59/120 125/57/120
f 91/59/121 92/61/121 118/60/121
f 125/57/122 118/60/122 44/111/122
f 92/61/123 93/72/123 126/62/123
f 142/92/124 111/74/124 141/67/124 115/68/124
f 116/94/125 112/77/125 111/74/125 142/92/125
f 143/96/126 113/69/126 112/77/126 116/94/126
f 138/50/127 114/71/127 139/70/127 140/44/127
f 143/96/128 139/70/128 113/69/128
f 111/74/129 110/76/129 109/73/129 141/67/129
f 135/48/130 108/81/130 114/71/130 122/52/130
f 136/75/131 111/74/131 112/77/131
f 137/78/132 112/77/132 113/69/132
f 114/71/133 138/50/133 122/52/133
f 134/79/134 109/73/134 110/76/134
f 136/75/135 137/78/135 107/80/135
f 137/78/136 114/71/136 108/81/136
f 110/76/137 104/84/137 133/82/137 134/79/137
f 119/64/138 134/79/138 133/82/138
f 107/80/139 105/87/139 104/84/139 110/76/139
f 121/45/140 106/83/140 108/81/140 135/48/140
f 103/85/141 117/107/141 94/41/141 133/82/141
f 105/87/142 131/88/142 128/99/142 146/102/142
f 105/87/143 106/83/143 131/88/143
f 105/87/144 107/80/144 106/83/144
f 145/89/145 106/83/145 121/45/145
f 91/59/146 89/56/146 129/90/146
f 115/68/147 129/90/147 142/92/147
f 142/92/148 102/91/148 151/93/148
f 116/94/149 151/93/149 143/96/149
f 143/96/150 144/97/150 139/70/150
f 144/97/151 153/42/151 140/44/151
f 99/65/152 76/27/152 88/104/152
f 128/99/153 101/100/153 146/102/153
f 132/86/154 105/87/154 146/102/154 147/101/154
f 103/85/155 132/86/155 147/101/155 148/39/155
f 89/56/156 44/58/156 149/103/156 129/90/156
f 150/105/157 102/91/157 129/90/157
f 117/107/158 103/85/158 148/39/158 43/38/158
f 100/66/159 130/95/159 151/93/159
f 100/66/160 152/106/160 144/97/160
f 152/106/161 153/42/161 144/97/161
f 79/20/162 35/20/162 43/38/162 101/100/162 128/99/162 87/112/162
f 76/27/163 79/20/163 87/108/163 95/55/163 96/54/163 120/53/163 88/109/163
f 32/27/164 150/27/164 44/104/164
f 32/27/165 44/111/165 118/60/165 127/113/165 43/38/165 35/20/165
f 167/114/166 183/24/166 180/115/166 169/25/166
f 79/20/167 76/27/167 181/116/167 182/35/167
f 76/27/168 32/27/168 171/33/168 178/34/168
f 86/30/169 163/30/169 155/30/169 42/30/169
f 84/25/170 168/25/170 163/30/170 86/30/170
f 35/20/171 79/20/171 185/21/171 176/21/171
f 37/23/172 39/24/172 159/24/172 157/1/172
f 169/29/173 162/30/173 163/30/173 168/25/173
f 167/114/174 169/25/174 168/25/174 166/24/174
f 165/1/175 167/24/175 166/24/175 164/1/175
f 162/30/3 154/30/3 155/30/3 163/30/3
f 154/30/176 160/25/176 161/25/176 155/30/176
f 160/25/177 158/24/177 159/24/177 161/25/177
f 158/24/178 156/1/178 157/1/178 159/24/178
f 164/1/20 157/1/20 156/1/20 165/1/20
f 40/25/179 42/30/179 155/30/179 161/25/179
f 160/25/180 154/30/180 170/30/180 173/29/180
f 170/30/181 179/30/181 189/30/181 77/30/181
f 179/30/182 180/25/182 186/25/182 189/30/182
f 178/34/183 171/33/183 75/33/183 188/34/183
f 177/1/184 174/24/184 33/24/184 34/1/184
f 180/115/185 183/24/185 193/24/185 186/115/185
f 181/26/186 178/33/186 188/33/186 187/26/186
f 182/35/187 181/116/187 187/116/187 192/35/187
f 171/34/188 172/26/188 80/26/188 75/34/188
f 172/26/189 171/34/189 32/27/189
f 34/1/190 33/24/190 31/22/190 36/21/190
f 33/28/191 78/25/191 80/26/191 31/22/191
f 187/26/192 188/33/192 189/30/192 186/25/192
f 191/36/193 192/35/193 193/24/193 190/1/193
f 192/35/194 187/116/194 186/115/194 193/24/194
f 188/34/195 75/33/195 77/30/195 189/30/195
f 36/21/196 191/21/196 190/2/196 34/1/196
f 175/22/197 176/21/197 36/21/197 31/22/197
f 176/21/198 185/21/198 191/21/198 36/21/198
f 185/36/199 182/35/199 192/35/199 191/36/199
f 174/28/200 173/25/200 78/25/200 33/28/200
f 184/2/201 177/1/201 34/1/201 190/2/201
f 173/29/202 170/30/202 77/30/202 78/29/202
f 172/26/203 175/22/203 31/22/203 80/26/203
f 183/24/204 184/1/204 190/1/204 193/24/204
f 200/117/205 199/118/205 198/119/205 201/120/205
f 202/118/206 211/118/206 221/118/206 199/118/206
f 211/118/207 212/121/207 218/121/207 221/118/207
f 210/119/208 203/122/208 198/122/208 220/119/208
f 209/123/209 206/124/209 195/124/209 196/123/209
f 212/125/210 215/124/210 225/124/210 218/125/210
f 213/120/211 210/122/211 220/122/211 219/120/211
f 214/126/212 213/127/212 219/127/212 224/126/212
f 203/119/213 204/120/213 201/120/213 198/119/213
f 196/123/214 195/124/214 194/126/214 197/128/214
f 195/129/215 200/121/215 201/120/215 194/126/215
f 219/120/216 220/122/216 221/118/216 218/121/216
f 223/128/217 224/126/217 225/124/217 222/123/217
f 224/126/218 219/127/218 218/125/218 225/124/218
f 220/119/219 198/122/219 199/118/219 221/118/219
f 197/128/220 223/128/220 222/130/220 196/123/220
f 207/126/221 208/128/221 197/128/221 194/126/221
f 208/128/222 217/128/222 223/128/222 197/128/222
f 217/128/223 214/126/223 224/126/223 223/128/223
f 206/129/224 205/121/224 200/121/224 195/129/224
f 216/130/225 209/123/225 196/123/225 222/130/225
f 205/117/226 202/118/226 199/118/226 200/117/226
f 204/120/227 207/126/227 194/126/227 201/120/227
f 215/124/228 216/123/228 222/123/228 225/124/228
