# Blender 3.6.5
# www.blender.org
mtllib e_Modular_Sofa_9.mtl
o e_Modular_Sofa_9
v 0.000000 0.271976 -0.495709
v 0.000000 0.271976 0.493317
v 0.395125 -0.000000 0.428801
v 0.453766 -0.000000 0.428543
v 0.395125 -0.000000 0.371154
v 0.453766 -0.000000 0.371415
v 0.395125 0.000000 -0.371027
v 0.453766 0.000000 -0.371285
v 0.395125 0.000000 -0.428673
v 0.453766 0.000000 -0.428413
v 0.453766 0.040223 0.371415
v 0.453766 0.040223 0.428543
v 0.395125 0.040223 0.428801
v 0.395125 0.040223 0.371154
v 0.453766 0.040223 -0.371285
v 0.453766 0.040223 -0.428413
v 0.395125 0.040223 -0.371027
v 0.395125 0.040223 -0.428673
v 0.482027 0.273270 0.489436
v 0.496381 0.273308 0.474966
v 0.496381 0.273309 -0.479279
v 0.482027 0.273270 -0.495709
v 0.000000 0.029176 0.469047
v 0.000000 0.052387 0.493317
v 0.000000 0.035974 0.486209
v 0.000000 0.052387 -0.495709
v 0.000000 0.029176 -0.473397
v 0.000000 0.035974 -0.490559
v 0.471835 0.030442 -0.469562
v 0.482027 0.053681 -0.495709
v 0.479042 0.037260 -0.486666
v 0.496381 0.053719 -0.479279
v 0.489273 0.037287 -0.476351
v 0.496381 0.053719 0.474966
v 0.489273 0.037287 0.472038
v 0.471837 0.030442 0.465248
v 0.482027 0.053680 0.489436
v 0.479042 0.037260 0.482352
v 0.000000 0.455351 0.493317
v 0.000000 0.479016 0.468572
v 0.000000 0.472084 0.486070
v 0.000000 0.479016 -0.246272
v 0.000000 0.455351 -0.271017
v 0.000000 0.472084 -0.263769
v 0.481756 0.456645 -0.267099
v 0.478664 0.473370 -0.259876
v 0.471297 0.480281 -0.242437
v 0.496111 0.456683 -0.252628
v 0.488814 0.473397 -0.249643
v 0.496111 0.456683 0.474966
v 0.488814 0.473397 0.471981
v 0.471297 0.480281 0.464775
v 0.481757 0.456645 0.489436
v 0.478664 0.473370 0.482213
v 0.000000 0.282745 -0.271017
v 0.000000 0.260037 -0.246272
v 0.000000 0.260037 0.468572
v 0.000000 0.282745 0.493317
v 0.481958 0.284038 0.489436
v 0.471637 0.261303 0.464775
v 0.496312 0.284077 0.474966
v 0.496312 0.284077 -0.252628
v 0.471636 0.261303 -0.242439
v 0.481957 0.284038 -0.267099
v 0.358510 0.494697 0.305479
v 0.434682 0.488300 0.402304
v 0.358509 0.494697 -0.083150
v 0.434681 0.488300 -0.179969
v 0.000000 0.493880 -0.085625
v 0.000000 0.487282 -0.182777
v 0.000000 0.487282 0.405084
v 0.000000 0.493880 0.307930
v 0.000000 0.271976 -0.276198
v 0.496381 0.273309 -0.276198
v 0.480793 0.789824 -0.495709
v 0.475188 0.802057 -0.483442
v 0.479138 0.798480 -0.492116
v 0.482847 0.802078 -0.474675
v 0.495147 0.789864 -0.479279
v 0.491531 0.798514 -0.477930
v 0.482847 0.802078 -0.345105
v 0.495147 0.789868 -0.331174
v 0.491531 0.798515 -0.335861
v 0.000000 0.800779 -0.483442
v 0.000000 0.788529 -0.495709
v 0.000000 0.797191 -0.492116
v 0.000000 0.788565 -0.338970
v 0.000000 0.800779 -0.352907
v 0.000000 0.797201 -0.343743
v -0.395125 -0.000000 0.428801
v -0.453766 -0.000000 0.428543
v -0.395125 -0.000000 0.371154
v -0.453766 -0.000000 0.371415
v -0.395125 0.000000 -0.371027
v -0.453766 0.000000 -0.371285
v -0.395125 0.000000 -0.428673
v -0.453766 0.000000 -0.428413
v -0.453766 0.040223 0.371415
v -0.453766 0.040223 0.428543
v -0.395125 0.040223 0.428801
v -0.395125 0.040223 0.371154
v -0.453766 0.040223 -0.371285
v -0.453766 0.040223 -0.428413
v -0.395125 0.040223 -0.371027
v -0.395125 0.040223 -0.428673
v -0.482027 0.273270 0.489436
v -0.496381 0.273308 0.474966
v -0.496381 0.273309 -0.479279
v -0.482027 0.273270 -0.495709
v -0.471835 0.030442 -0.469562
v -0.482027 0.053681 -0.495709
v -0.479042 0.037260 -0.486666
v -0.496381 0.053719 -0.479279
v -0.489273 0.037287 -0.476351
v -0.496381 0.053719 0.474966
v -0.489273 0.037287 0.472038
v -0.471837 0.030442 0.465248
v -0.482027 0.053680 0.489436
v -0.479042 0.037260 0.482352
v -0.481756 0.456645 -0.267099
v -0.478664 0.473370 -0.259876
v -0.471297 0.480281 -0.242437
v -0.496111 0.456683 -0.252628
v -0.488814 0.473397 -0.249643
v -0.496111 0.456683 0.474966
v -0.488814 0.473397 0.471981
v -0.471297 0.480281 0.464775
v -0.481757 0.456645 0.489436
v -0.478664 0.473370 0.482213
v -0.481958 0.284038 0.489436
v -0.471637 0.261303 0.464775
v -0.496312 0.284077 0.474966
v -0.496312 0.284077 -0.252628
v -0.471636 0.261303 -0.242439
v -0.481957 0.284038 -0.267099
v -0.358510 0.494697 0.305479
v -0.434682 0.488300 0.402304
v -0.358509 0.494697 -0.083150
v -0.434681 0.488300 -0.179969
v -0.496381 0.273309 -0.276198
v -0.480793 0.789824 -0.495709
v -0.475188 0.802057 -0.483442
v -0.479138 0.798480 -0.492116
v -0.482847 0.802078 -0.474675
v -0.495147 0.789864 -0.479279
v -0.491531 0.798514 -0.477930
v -0.482847 0.802078 -0.345105
v -0.495147 0.789868 -0.331174
v -0.491531 0.798515 -0.335861
vn -0.0000 -0.0000 -1.0000
vn 0.7531 -0.0000 -0.6579
vn 0.0081 -0.0000 1.0000
vn -0.0000 -1.0000 -0.0000
vn 0.0044 -0.0000 -1.0000
vn 0.0044 -0.0000 1.0000
vn -1.0000 -0.0000 -0.0000
vn 1.0000 -0.0000 -0.0000
vn 0.7099 -0.0000 0.7043
vn -0.0081 0.1132 0.9935
vn 0.2638 -0.9291 -0.2592
vn 0.6661 -0.4274 -0.6113
vn 0.2638 -0.9291 0.2592
vn 0.6521 -0.3972 0.6458
vn 0.3654 -0.9308 -0.0000
vn 0.9178 -0.3970 -0.0000
vn 0.0055 -0.9297 0.3683
vn 0.0085 -0.3974 0.9176
vn 0.0055 -0.9297 -0.3683
vn 0.0048 -0.3972 -0.9177
vn 0.0027 -1.0000 -0.0000
vn 0.0081 -0.0000 -1.0000
vn 0.7099 0.0008 0.7043
vn 1.0000 0.0012 -0.0000
vn 0.7100 0.0008 -0.7042
vn 0.2590 0.9304 -0.2593
vn 0.6504 0.3993 -0.6462
vn 0.2590 0.9304 0.2594
vn 0.6504 0.3993 0.6462
vn 0.9165 0.4001 -0.0000
vn 0.3658 0.9307 -0.0000
vn 0.0064 0.3974 -0.9176
vn 0.0005 0.9297 -0.3683
vn 0.0063 0.3974 0.9176
vn 0.0005 0.9297 0.3683
vn -0.0023 1.0000 -0.0000
vn 0.4821 -0.7354 -0.4762
vn 0.4821 -0.7354 0.4762
vn 0.6782 -0.7348 -0.0000
vn 0.0075 -0.7368 -0.6761
vn 0.0074 -0.7368 0.6761
vn -0.0016 0.9917 -0.1287
vn 0.2139 0.9768 -0.0000
vn -0.0019 0.9977 -0.0676
vn -0.0019 0.9977 0.0676
vn 0.0837 0.9965 -0.0000
vn -0.0016 0.9917 0.1287
vn -0.0027 1.0000 -0.0000
vn 1.0000 0.0024 -0.0000
vn 0.2853 0.9249 -0.2514
vn 0.6945 0.3851 -0.6077
vn 0.9226 0.3858 -0.0000
vn 0.3796 0.9252 -0.0000
vn -0.0010 0.3832 -0.9237
vn -0.0025 0.9241 -0.3822
vn -0.0084 0.9310 0.3650
vn -0.0152 0.4776 0.8785
vn 0.7531 0.0018 -0.6579
vn -0.7531 -0.0000 -0.6579
vn -0.0081 -0.0000 1.0000
vn -0.0044 -0.0000 -1.0000
vn -0.0044 -0.0000 1.0000
vn -0.7099 -0.0000 0.7043
vn 0.0081 0.1132 0.9935
vn -0.2638 -0.9291 -0.2592
vn -0.6661 -0.4274 -0.6113
vn -0.2638 -0.9291 0.2592
vn -0.6521 -0.3972 0.6458
vn -0.3654 -0.9308 -0.0000
vn -0.9178 -0.3970 -0.0000
vn -0.0055 -0.9297 0.3683
vn -0.0085 -0.3974 0.9176
vn -0.0055 -0.9297 -0.3683
vn -0.0048 -0.3972 -0.9177
vn -0.0027 -1.0000 -0.0000
vn -0.0081 -0.0000 -1.0000
vn -0.7099 0.0008 0.7043
vn -1.0000 0.0012 -0.0000
vn -0.7100 0.0008 -0.7042
vn -0.2590 0.9304 -0.2593
vn -0.6504 0.3993 -0.6462
vn -0.2590 0.9304 0.2594
vn -0.6504 0.3993 0.6462
vn -0.9165 0.4001 -0.0000
vn -0.3658 0.9307 -0.0000
vn -0.0064 0.3974 -0.9176
vn -0.0005 0.9297 -0.3683
vn -0.0063 0.3974 0.9176
vn -0.0005 0.9297 0.3683
vn 0.0023 1.0000 -0.0000
vn -0.4821 -0.7354 -0.4762
vn -0.4821 -0.7354 0.4762
vn -0.6782 -0.7348 -0.0000
vn -0.0075 -0.7368 -0.6761
vn -0.0074 -0.7368 0.6761
vn 0.0016 0.9917 -0.1287
vn -0.2139 0.9768 -0.0000
vn 0.0019 0.9977 -0.0676
vn 0.0019 0.9977 0.0676
vn -0.0837 0.9965 -0.0000
vn 0.0016 0.9917 0.1287
vn 0.0027 1.0000 -0.0000
vn -1.0000 0.0024 -0.0000
vn -0.2853 0.9249 -0.2514
vn -0.6945 0.3851 -0.6077
vn -0.9226 0.3858 -0.0000
vn -0.3796 0.9252 -0.0000
vn 0.0010 0.3832 -0.9237
vn 0.0025 0.9241 -0.3822
vn 0.0084 0.9310 0.3650
vn 0.0152 0.4776 0.8785
vn -0.7531 0.0018 -0.6579
vt 0.378735 0.796990
vt 0.379109 0.795612
vt 0.383066 0.794318
vt 0.383536 0.795990
vt 0.378510 0.796943
vt 0.378924 0.795592
vt 0.379109 0.795612
vt 0.373576 0.792150
vt 0.374917 0.787020
vt 0.376769 0.787631
vt 0.374864 0.791927
vt 0.958779 0.966749
vt 0.374875 0.792113
vt 0.373618 0.792380
vt 0.378924 0.795592
vt 0.378106 0.796567
vt 0.382580 0.794996
vt 0.378106 0.796567
vt 0.378278 0.796726
vt 0.382985 0.795417
vt 0.379104 0.795331
vt 0.379145 0.795468
vt 0.378971 0.795451
vt 0.375160 0.791933
vt 0.375008 0.792079
vt 0.375000 0.791905
vt 0.379101 0.795331
vt 0.377120 0.787868
vt 0.375159 0.791929
vt 0.376955 0.787693
vt 0.382854 0.793974
vt 0.383018 0.794150
vt 0.876812 0.716221
vt 0.881612 0.715221
vt 0.881612 0.715221
vt 0.871652 0.711381
vt 0.871694 0.711610
vt 0.871652 0.711381
vt 0.872994 0.706251
vt 0.871652 0.711381
vt 0.876587 0.716174
vt 0.876587 0.716174
vt 0.876587 0.716174
vt 0.876812 0.716221
vt 0.876752 0.716041
vt 0.876595 0.716170
vt 0.876810 0.716214
vt 0.871845 0.711429
vt 0.871660 0.711382
vt 0.871700 0.711602
vt 0.881612 0.715221
vt 0.881374 0.714972
vt 0.872993 0.706251
vt 0.873232 0.706499
vt 0.876848 0.715494
vt 0.880759 0.714332
vt 0.873847 0.707139
vt 0.872439 0.711287
vt 0.876752 0.716041
vt 0.871845 0.711429
vt 0.373576 0.792150
vt 0.378625 0.796911
vt 0.378740 0.796930
vt 0.383455 0.795906
vt 0.383077 0.795513
vt 0.378440 0.796737
vt 0.378515 0.796943
vt 0.378735 0.796987
vt 0.378304 0.796730
vt 0.382996 0.795428
s 0
usemtl Palette
f 22/1/1 30/2/1 26/3/1 1/4/1
f 21/5/2 32/6/2 30/7/2 22/1/2
f 19/8/3 2/9/3 24/10/3 37/11/3
f 6/12/4 4/12/4 3/12/4 5/12/4
f 10/12/4 8/12/4 7/12/4 9/12/4
f 5/12/5 14/12/5 11/12/5 6/12/5
f 4/12/6 12/12/6 13/12/6 3/12/6
f 7/12/7 17/12/7 18/12/7 9/12/7
f 10/12/8 16/12/8 15/12/8 8/12/8
f 3/12/7 13/12/7 14/12/7 5/12/7
f 6/12/8 11/12/8 12/12/8 4/12/8
f 9/12/5 18/12/5 16/12/5 10/12/5
f 8/12/6 15/12/6 17/12/6 7/12/6
f 34/13/9 20/14/9 19/8/9 37/11/9
f 20/14/8 34/13/8 32/15/8 21/5/8 74/16/8
f 73/17/10 74/18/10 82/19/10 87/20/10
f 29/21/11 31/22/11 33/23/11
f 33/23/12 31/22/12 30/7/12 32/6/12
f 36/24/13 35/25/13 38/26/13
f 38/26/14 35/25/14 34/13/14 37/11/14
f 36/24/15 29/27/15 33/23/15 35/25/15
f 35/25/16 33/23/16 32/15/16 34/13/16
f 23/28/17 36/29/17 38/26/17 25/30/17
f 25/30/18 38/26/18 37/11/18 24/10/18
f 29/21/19 27/31/19 28/32/19 31/22/19
f 31/22/20 28/32/20 26/3/20 30/2/20
f 29/27/21 36/29/21 23/28/21 27/31/21
f 64/33/22 55/34/22 43/35/22 45/33/22
f 59/36/23 61/37/23 50/37/23 53/38/23
f 58/39/3 59/40/3 53/36/3 39/39/3
f 61/37/24 62/41/24 48/42/24 50/37/24
f 62/43/25 64/44/25 45/33/25 48/43/25
f 47/45/26 49/46/26 46/47/26
f 46/47/27 49/46/27 48/43/27 45/33/27
f 52/48/28 54/49/28 51/50/28
f 51/50/29 54/49/29 53/38/29 50/37/29
f 50/37/30 48/42/30 49/46/30 51/50/30
f 51/50/31 49/46/31 47/45/31 52/48/31
f 45/33/32 43/35/32 44/51/32 46/47/32
f 46/47/33 44/51/33 42/52/33 47/45/33
f 39/39/34 53/36/34 54/49/34 41/53/34
f 41/53/35 54/49/35 52/48/35 40/54/35
f 67/55/36 69/56/36 72/57/36 65/58/36
f 64/44/37 62/43/37 63/59/37
f 61/37/38 59/36/38 60/60/38
f 60/60/39 63/59/39 62/41/39 61/37/39
f 63/59/40 56/52/40 55/34/40 64/33/40
f 57/54/41 60/60/41 59/40/41 58/39/41
f 47/45/42 42/52/42 70/52/42 68/45/42
f 52/48/43 47/45/43 68/45/43 66/48/43
f 69/56/44 67/55/44 68/45/44 70/52/44
f 65/58/45 72/57/45 71/54/45 66/48/45
f 67/55/46 65/58/46 66/48/46 68/45/46
f 40/54/47 52/48/47 66/48/47 71/54/47
f 22/1/1 1/4/1 85/4/1 75/1/1
f 74/18/48 73/17/48 2/9/48 19/61/48 20/14/48
f 78/62/48 76/63/48 84/64/48 88/65/48 81/66/48
f 74/16/49 21/5/49 79/5/49 82/19/49
f 76/63/50 78/62/50 80/67/50 77/68/50
f 77/68/51 80/67/51 79/5/51 75/1/51
f 82/19/52 79/5/52 80/67/52 83/69/52
f 83/69/53 80/67/53 78/62/53 81/66/53
f 75/1/54 85/4/54 86/4/54 77/68/54
f 77/68/55 86/4/55 84/64/55 76/63/55
f 81/66/56 88/65/56 89/70/56 83/69/56
f 83/69/57 89/70/57 87/20/57 82/19/57
f 21/5/58 22/1/58 75/1/58 79/5/58
f 109/1/1 1/4/1 26/3/1 111/2/1
f 108/5/59 109/1/59 111/7/59 113/6/59
f 106/8/60 118/11/60 24/10/60 2/9/60
f 93/12/4 92/12/4 90/12/4 91/12/4
f 97/12/4 96/12/4 94/12/4 95/12/4
f 92/12/61 93/12/61 98/12/61 101/12/61
f 91/12/62 90/12/62 100/12/62 99/12/62
f 94/12/8 96/12/8 105/12/8 104/12/8
f 97/12/7 95/12/7 102/12/7 103/12/7
f 90/12/8 92/12/8 101/12/8 100/12/8
f 93/12/7 91/12/7 99/12/7 98/12/7
f 96/12/61 97/12/61 103/12/61 105/12/61
f 95/12/62 94/12/62 104/12/62 102/12/62
f 115/13/63 118/11/63 106/8/63 107/14/63
f 107/14/7 140/16/7 108/5/7 113/15/7 115/13/7
f 73/17/64 87/20/64 148/19/64 140/18/64
f 110/21/65 114/23/65 112/22/65
f 114/23/66 113/6/66 111/7/66 112/22/66
f 117/24/67 119/26/67 116/25/67
f 119/26/68 118/11/68 115/13/68 116/25/68
f 117/24/69 116/25/69 114/23/69 110/27/69
f 116/25/70 115/13/70 113/15/70 114/23/70
f 23/28/71 25/30/71 119/26/71 117/29/71
f 25/30/72 24/10/72 118/11/72 119/26/72
f 110/21/73 112/22/73 28/32/73 27/31/73
f 112/22/74 111/2/74 26/3/74 28/32/74
f 110/27/75 27/31/75 23/28/75 117/29/75
f 135/33/76 120/33/76 43/35/76 55/34/76
f 130/36/77 128/38/77 125/37/77 132/37/77
f 58/39/60 39/39/60 128/36/60 130/40/60
f 132/37/78 125/37/78 123/42/78 133/41/78
f 133/43/79 123/43/79 120/33/79 135/44/79
f 122/45/80 121/47/80 124/46/80
f 121/47/81 120/33/81 123/43/81 124/46/81
f 127/48/82 126/50/82 129/49/82
f 126/50/83 125/37/83 128/38/83 129/49/83
f 125/37/84 126/50/84 124/46/84 123/42/84
f 126/50/85 127/48/85 122/45/85 124/46/85
f 120/33/86 121/47/86 44/51/86 43/35/86
f 121/47/87 122/45/87 42/52/87 44/51/87
f 39/39/88 41/53/88 129/49/88 128/36/88
f 41/53/89 40/54/89 127/48/89 129/49/89
f 138/55/90 136/58/90 72/57/90 69/56/90
f 135/44/91 134/59/91 133/43/91
f 132/37/92 131/60/92 130/36/92
f 131/60/93 132/37/93 133/41/93 134/59/93
f 134/59/94 135/33/94 55/34/94 56/52/94
f 57/54/95 58/39/95 130/40/95 131/60/95
f 122/45/96 139/45/96 70/52/96 42/52/96
f 127/48/97 137/48/97 139/45/97 122/45/97
f 69/56/98 70/52/98 139/45/98 138/55/98
f 136/58/99 137/48/99 71/54/99 72/57/99
f 138/55/100 139/45/100 137/48/100 136/58/100
f 40/54/101 71/54/101 137/48/101 127/48/101
f 109/1/1 141/1/1 85/4/1 1/4/1
f 140/18/102 107/14/102 106/61/102 2/9/102 73/17/102
f 144/62/102 147/66/102 88/65/102 84/64/102 142/63/102
f 140/16/103 148/19/103 145/5/103 108/5/103
f 142/63/104 143/68/104 146/67/104 144/62/104
f 143/68/105 141/1/105 145/5/105 146/67/105
f 148/19/106 149/69/106 146/67/106 145/5/106
f 149/69/107 147/66/107 144/62/107 146/67/107
f 141/1/108 143/68/108 86/4/108 85/4/108
f 143/68/109 142/63/109 84/64/109 86/4/109
f 147/66/110 149/69/110 89/70/110 88/65/110
f 149/69/111 148/19/111 87/20/111 89/70/111
f 108/5/112 145/5/112 141/1/112 109/1/112
