# Blender 3.6.5
# www.blender.org
mtllib e_Painting_3.mtl
o e_Painting_3
v -1.154524 -0.559609 0.026195
v -1.154524 0.559609 0.026195
v 1.154524 0.559609 0.026195
v 1.154524 -0.559609 0.026195
v 1.154524 -0.559609 -0.000376
v 1.154524 0.559609 -0.000376
v -1.154524 0.559609 -0.000376
v -1.154524 -0.559609 -0.000376
v 0.593422 -0.559609 0.026195
v 0.561102 -0.559609 0.026195
v 0.016160 -0.559609 0.026195
v -0.016159 -0.559609 0.026195
v -0.561102 -0.559609 0.026195
v -0.593421 -0.559609 0.026195
v -0.593421 0.559609 0.026195
v -0.561102 0.559609 0.026195
v -0.016159 0.559609 0.026195
v 0.016160 0.559609 0.026195
v 0.561102 0.559609 0.026195
v 0.593422 0.559609 0.026195
v 0.593422 -0.559609 -0.000376
v 0.561102 -0.559609 -0.000376
v 0.016160 -0.559609 -0.000376
v -0.016159 -0.559609 -0.000376
v -0.561102 -0.559609 -0.000376
v -0.593421 -0.559609 -0.000376
v -0.593421 0.559609 -0.000376
v -0.561102 0.559609 -0.000376
v -0.016159 0.559609 -0.000376
v 0.016160 0.559609 -0.000376
v 0.561102 0.559609 -0.000376
v 0.593422 0.559609 -0.000376
vn -0.0000 1.0000 -0.0000
vn -0.0000 -0.0000 -1.0000
vn -1.0000 -0.0000 -0.0000
vn -0.0000 -0.0000 1.0000
vn 1.0000 -0.0000 -0.0000
vn -0.0000 -1.0000 -0.0000
vt 0.008836 0.991739
vt 0.248678 0.991739
vt 0.248678 0.991739
vt 0.130473 0.872947
vt 0.128075 0.872947
vt 0.128075 0.877731
vt 0.130473 0.877731
vt 0.008836 0.513333
vt 0.248678 0.513333
vt 0.995832 0.991739
vt 0.995832 0.513333
vt 0.127937 0.872947
vt 0.125607 0.872947
vt 0.125607 0.877731
vt 0.127937 0.877731
vt 0.125469 0.872947
vt 0.123140 0.872947
vt 0.123140 0.877731
vt 0.125469 0.877731
vt 0.123002 0.872947
vt 0.120603 0.872947
vt 0.120603 0.877731
vt 0.123002 0.877731
vt 0.742176 0.513333
vt 0.742176 0.991739
vt 0.509242 0.991739
vt 0.509242 0.513333
vt 0.755990 0.513333
vt 0.248678 0.513333
vt 0.262493 0.991739
vt 0.495427 0.991739
vt 0.495427 0.991739
vt 0.262493 0.991739
vt 0.509242 0.991739
vt 0.742176 0.991739
vt 0.755990 0.991739
vt 0.755990 0.991739
vt 0.742176 0.513333
vt 0.509242 0.513333
vt 0.495427 0.513333
vt 0.262493 0.513333
vt 0.262493 0.513333
vt 0.252131 0.991739
vt 0.252131 0.513333
vt 0.259039 0.513333
vt 0.259039 0.991739
vt 0.505788 0.513333
vt 0.505788 0.991739
vt 0.498880 0.991739
vt 0.498880 0.513333
vt 0.752537 0.513333
vt 0.752537 0.991739
vt 0.745630 0.991739
vt 0.745630 0.513333
s 0
usemtl Palette
f 5/4/2 21/5/2 32/6/2 6/7/2
f 22/12/2 23/13/2 30/14/2 31/15/2
f 24/16/2 25/17/2 28/18/2 29/19/2
f 26/20/2 8/21/2 7/22/2 27/23/2
usemtl PaintingE1
f 2/1/1 15/2/1 27/3/1 7/1/1
f 1/8/3 2/1/3 7/1/3 8/8/3
f 14/9/4 15/3/4 2/1/4 1/8/4
f 3/10/5 4/11/5 5/11/5 6/10/5
f 10/24/4 19/25/4 18/26/4 11/27/4
f 4/11/6 9/28/6 21/28/6 5/11/6
f 14/29/6 1/8/6 8/8/6 26/9/6
f 16/30/1 17/31/1 29/32/1 28/33/1
f 18/34/1 19/35/1 31/25/1 30/26/1
f 20/36/1 3/10/1 6/10/1 32/37/1
f 10/38/6 11/39/6 23/27/6 22/24/6
f 12/40/4 17/32/4 16/33/4 13/41/4
f 12/40/6 13/42/6 25/41/6 24/40/6
f 4/11/4 3/10/4 20/37/4 9/28/4
f 15/43/5 14/44/5 26/44/5 27/43/5
f 13/45/3 16/46/3 28/46/3 25/45/3
f 11/47/3 18/48/3 30/48/3 23/47/3
f 17/49/5 12/50/5 24/50/5 29/49/5
f 9/51/3 20/52/3 32/52/3 21/51/3
f 19/53/5 10/54/5 22/54/5 31/53/5
