# Blender 3.6.5
# www.blender.org
mtllib e_Pillow_2.mtl
o e_Pillow_2
v 0.284091 -0.171086 0.033602
v 0.000000 -0.101308 -0.061861
v 0.000000 0.126198 0.083183
v 0.187161 0.241069 0.041532
v 0.000000 0.219625 0.061151
v 0.240416 -0.185136 -0.029402
v 0.318649 0.047338 -0.001328
v 0.000000 -0.202039 0.036537
v 0.000000 -0.198784 -0.020848
v 0.000000 0.249648 -0.009172
v 0.000000 0.081984 -0.065133
v 0.000000 0.220689 -0.040641
v 0.000000 -0.158651 0.076216
v 0.000000 -0.171274 -0.046983
v 0.000000 -0.012494 0.096495
v 0.300642 -0.145531 0.012778
v 0.295893 -0.164843 -0.013459
v 0.139668 -0.043166 0.095093
v 0.300945 -0.105319 0.039288
v 0.099430 -0.189570 0.052817
v 0.284759 0.159053 0.041721
v 0.239337 -0.008450 0.082926
v 0.308622 0.037933 -0.036155
v 0.296475 0.174505 -0.010832
v 0.292861 0.197530 0.016117
v 0.148245 0.235532 -0.031194
v 0.224509 -0.125404 -0.055663
v 0.235271 -0.101483 0.073588
v 0.257398 0.045551 -0.060085
v 0.171878 0.258946 0.010612
v 0.056213 0.253259 0.034506
v 0.284332 0.055604 0.060602
v 0.245292 0.170703 0.060522
v 0.281311 0.161588 -0.035581
v 0.152940 -0.109393 -0.063947
v 0.239736 0.230454 -0.024594
v 0.238518 0.235739 0.030327
v 0.276093 0.216289 0.024594
v 0.137203 -0.160618 0.074546
v 0.221394 0.181588 0.065330
v 0.141059 0.173006 0.074891
v 0.320193 0.010892 -0.011101
v 0.283362 -0.141200 -0.036643
v 0.264640 -0.021274 -0.060394
v 0.279286 -0.043703 0.067253
v 0.263642 -0.197703 0.000074
v 0.160469 -0.206695 0.012037
v 0.272093 -0.173264 -0.028527
v 0.165194 -0.194376 -0.027012
v 0.000000 0.258367 0.022407
v 0.162449 0.080590 -0.065193
v 0.224055 0.174645 -0.047632
v 0.221313 0.251788 -0.009140
v 0.284976 0.215574 -0.001518
v 0.280687 0.198856 -0.022967
v 0.141029 0.067727 0.092767
v 0.263351 -0.159941 0.052921
v 0.312469 0.000992 0.039685
v 0.243285 -0.186572 0.037391
v -0.284091 -0.171086 0.033602
v -0.187161 0.241069 0.041532
v -0.240416 -0.185136 -0.029402
v -0.318649 0.047338 -0.001328
v -0.300642 -0.145531 0.012778
v -0.295893 -0.164843 -0.013459
v -0.139668 -0.043166 0.095093
v -0.300945 -0.105319 0.039288
v -0.099430 -0.189570 0.052817
v -0.284759 0.159053 0.041721
v -0.239337 -0.008450 0.082926
v -0.308622 0.037933 -0.036155
v -0.296475 0.174505 -0.010832
v -0.292861 0.197530 0.016117
v -0.148245 0.235532 -0.031194
v -0.224509 -0.125404 -0.055663
v -0.235271 -0.101483 0.073588
v -0.257398 0.045551 -0.060085
v -0.171878 0.258946 0.010612
v -0.056213 0.253259 0.034506
v -0.284332 0.055604 0.060602
v -0.245292 0.170703 0.060522
v -0.281311 0.161588 -0.035581
v -0.152940 -0.109393 -0.063947
v -0.239736 0.230454 -0.024594
v -0.238518 0.235739 0.030327
v -0.276093 0.216289 0.024594
v -0.137203 -0.160618 0.074546
v -0.221394 0.181588 0.065330
v -0.141059 0.173006 0.074891
v -0.320193 0.010892 -0.011101
v -0.283362 -0.141200 -0.036643
v -0.264640 -0.021274 -0.060394
v -0.279286 -0.043703 0.067253
v -0.263642 -0.197703 0.000074
v -0.160469 -0.206695 0.012037
v -0.272093 -0.173264 -0.028527
v -0.165194 -0.194376 -0.027012
v -0.162449 0.080590 -0.065193
v -0.224055 0.174645 -0.047632
v -0.221313 0.251788 -0.009140
v -0.284976 0.215574 -0.001518
v -0.280687 0.198856 -0.022967
v -0.141029 0.067727 0.092767
v -0.263351 -0.159941 0.052921
v -0.312469 0.000992 0.039685
v -0.243285 -0.186572 0.037391
vn 0.0945 -0.8867 -0.4525
vn 0.0184 0.9489 0.3150
vn -0.0876 0.7044 0.7044
vn 0.7312 0.1195 0.6716
vn 0.4622 0.1574 0.8727
vn 0.0577 0.0109 -0.9983
vn -0.0243 -0.2079 -0.9778
vn 0.4801 0.7473 -0.4593
vn 0.1145 0.0194 0.9932
vn -0.0280 0.0955 0.9950
vn 0.9827 -0.1071 0.1512
vn 0.3963 0.0413 0.9172
vn 0.3088 -0.6419 0.7018
vn 0.9406 0.1409 -0.3089
vn 0.7948 0.1782 -0.5800
vn 0.1210 -0.9312 0.3438
vn 0.0490 -0.9542 -0.2951
vn 0.0928 -0.6723 0.7345
vn 0.0138 0.6066 0.7949
vn -0.0146 -0.0178 -0.9997
vn 0.4333 0.0999 -0.8957
vn 0.4771 0.8679 0.1386
vn -0.0090 0.9327 -0.3605
vn -0.0078 0.8171 -0.5764
vn 0.0342 -0.5022 -0.8641
vn -0.0087 -0.6887 -0.7250
vn 0.0964 -0.0822 -0.9919
vn 0.7800 0.2123 -0.5887
vn 0.7753 0.5810 0.2478
vn 0.8857 -0.2602 0.3846
vn -0.0189 0.2295 0.9731
vn 0.0656 0.4030 0.9129
vn 0.0480 0.4132 0.9094
vn 0.0024 0.1674 0.9859
vn 0.9446 0.1218 -0.3048
vn 0.5582 -0.0765 -0.8262
vn 0.4289 0.0507 -0.9019
vn 0.6222 0.0208 0.7826
vn 0.7295 -0.6776 0.0931
vn 0.9852 0.1708 -0.0138
vn 0.5374 -0.7130 -0.4504
vn 0.0559 0.8761 0.4789
vn 0.0976 0.1205 -0.9879
vn 0.2668 0.3068 -0.9136
vn 0.6777 0.3031 0.6699
vn 0.0408 -0.3752 -0.9261
vn 0.2872 0.4543 0.8433
vn 0.4350 0.3574 0.8264
vn 0.9875 -0.0824 0.1341
vn 0.1566 -0.1054 0.9820
vn 0.0146 0.0208 0.9997
vn -0.0189 -0.6413 0.7671
vn 0.2791 -0.1080 0.9542
vn 0.9486 0.1293 0.2890
vn 0.8601 0.1445 0.4893
vn 0.3030 -0.7669 -0.5657
vn -0.0376 -0.9977 -0.0566
vn 0.0143 -0.9541 -0.2993
vn 0.0037 0.1768 -0.9842
vn 0.0906 0.6344 -0.7677
vn 0.0311 0.2965 -0.9545
vn 0.0870 0.3592 -0.9292
vn 0.1942 0.1086 0.9749
vn -0.0004 -0.0065 -1.0000
vn 0.3149 0.1075 0.9430
vn 0.2179 0.9147 0.3403
vn 0.2370 0.1537 -0.9593
vn 0.4723 0.8690 0.1475
vn -0.0071 -0.1530 0.9882
vn -0.0215 0.9637 -0.2661
vn -0.0305 0.7355 -0.6768
vn 0.0385 -0.0085 -0.9992
vn 0.5076 0.6274 -0.5905
vn 0.8409 0.3323 -0.4272
vn 0.9480 0.2934 -0.1236
vn 0.8365 -0.1125 -0.5362
vn 0.1646 -0.2576 0.9521
vn 0.1142 -0.1735 0.9782
vn 0.9876 -0.1355 -0.0790
vn 0.1411 -0.5759 0.8052
vn 0.0990 0.1666 0.9811
vn 0.1882 -0.3361 -0.9228
vn 0.5671 -0.1903 0.8014
vn 0.2683 -0.1467 -0.9521
vn 0.0549 -0.8886 0.4553
vn 0.3448 -0.1613 0.9247
vn 0.6973 -0.0782 0.7125
vn 0.3541 -0.8255 0.4394
vn 0.8835 -0.4391 0.1633
vn 0.5871 -0.3864 -0.7114
vn -0.0945 -0.8867 -0.4525
vn -0.0184 0.9489 0.3150
vn 0.0876 0.7044 0.7044
vn -0.7312 0.1195 0.6716
vn -0.4622 0.1574 0.8727
vn -0.0577 0.0109 -0.9983
vn 0.0243 -0.2079 -0.9778
vn -0.4801 0.7473 -0.4593
vn -0.1145 0.0194 0.9932
vn 0.0280 0.0955 0.9950
vn -0.9827 -0.1071 0.1512
vn -0.3963 0.0413 0.9172
vn -0.3088 -0.6419 0.7018
vn -0.9406 0.1409 -0.3089
vn -0.7948 0.1782 -0.5800
vn -0.1210 -0.9312 0.3438
vn -0.0490 -0.9542 -0.2951
vn -0.0928 -0.6723 0.7345
vn -0.0138 0.6066 0.7949
vn 0.0146 -0.0178 -0.9997
vn -0.4333 0.0999 -0.8957
vn -0.4771 0.8679 0.1386
vn 0.0090 0.9327 -0.3605
vn 0.0078 0.8171 -0.5764
vn -0.0342 -0.5022 -0.8641
vn 0.0087 -0.6887 -0.7250
vn -0.0964 -0.0822 -0.9919
vn -0.7800 0.2123 -0.5887
vn -0.7753 0.5810 0.2478
vn -0.8857 -0.2602 0.3846
vn 0.0189 0.2295 0.9731
vn -0.0656 0.4030 0.9129
vn -0.0480 0.4132 0.9094
vn -0.0024 0.1674 0.9859
vn -0.9446 0.1218 -0.3048
vn -0.5582 -0.0765 -0.8262
vn -0.4289 0.0507 -0.9019
vn -0.6222 0.0208 0.7826
vn -0.7295 -0.6776 0.0931
vn -0.9852 0.1708 -0.0138
vn -0.5374 -0.7130 -0.4504
vn -0.0559 0.8761 0.4789
vn -0.0976 0.1205 -0.9879
vn -0.2668 0.3068 -0.9136
vn -0.6777 0.3031 0.6699
vn -0.0408 -0.3752 -0.9261
vn -0.2872 0.4543 0.8433
vn -0.4350 0.3574 0.8264
vn -0.9875 -0.0824 0.1341
vn -0.1566 -0.1054 0.9820
vn -0.0146 0.0208 0.9997
vn 0.0189 -0.6413 0.7671
vn -0.2791 -0.1080 0.9542
vn -0.9486 0.1293 0.2890
vn -0.8601 0.1445 0.4893
vn -0.3030 -0.7669 -0.5657
vn 0.0376 -0.9977 -0.0566
vn -0.0143 -0.9541 -0.2993
vn -0.0037 0.1768 -0.9842
vn -0.0906 0.6344 -0.7677
vn -0.0311 0.2965 -0.9545
vn -0.0870 0.3592 -0.9292
vn -0.1942 0.1086 0.9749
vn 0.0004 -0.0065 -1.0000
vn -0.3149 0.1075 0.9430
vn -0.2179 0.9147 0.3403
vn -0.2370 0.1537 -0.9593
vn -0.4723 0.8690 0.1475
vn 0.0071 -0.1530 0.9882
vn 0.0215 0.9637 -0.2661
vn 0.0305 0.7355 -0.6768
vn -0.0385 -0.0085 -0.9992
vn -0.5076 0.6274 -0.5905
vn -0.8409 0.3323 -0.4272
vn -0.9480 0.2934 -0.1236
vn -0.8365 -0.1125 -0.5362
vn -0.1646 -0.2576 0.9521
vn -0.1142 -0.1735 0.9782
vn -0.9876 -0.1355 -0.0790
vn -0.1411 -0.5759 0.8052
vn -0.0990 0.1666 0.9811
vn -0.1882 -0.3361 -0.9228
vn -0.5671 -0.1903 0.8014
vn -0.2683 -0.1467 -0.9521
vn -0.0549 -0.8886 0.4553
vn -0.3448 -0.1613 0.9247
vn -0.6973 -0.0782 0.7125
vn -0.3541 -0.8255 0.4394
vn -0.8835 -0.4391 0.1633
vn -0.5871 -0.3864 -0.7114
vt 0.960437 0.712334
vt 0.962575 0.713556
vt 0.961569 0.713322
vt 0.959292 0.709086
vt 0.960354 0.711242
vt 0.960134 0.709379
vt 0.957982 0.707139
vt 0.958144 0.710153
vt 0.957661 0.709700
vt 0.958587 0.710634
vt 0.957755 0.709555
vt 0.963565 0.714637
vt 0.962861 0.714735
vt 0.962815 0.714629
vt 0.963336 0.714509
vt 0.964267 0.714051
vt 0.964300 0.714453
vt 0.961818 0.713451
vt 0.960878 0.712209
vt 0.960237 0.712234
vt 0.957562 0.708428
vt 0.957605 0.708492
vt 0.957422 0.709120
vt 0.957982 0.707139
vt 0.957864 0.707530
vt 0.958586 0.710622
vt 0.959668 0.711719
vt 0.957727 0.709670
vt 0.959033 0.711013
vt 0.958259 0.710083
vt 0.959052 0.710673
vt 0.961884 0.713940
vt 0.960711 0.712773
vt 0.960346 0.712408
vt 0.962210 0.714212
vt 0.960468 0.711340
vt 0.957933 0.708764
vt 0.959163 0.709450
vt 0.958743 0.709814
vt 0.964311 0.714443
vt 0.958962 0.710911
vt 0.962587 0.711933
vt 0.962949 0.713723
vt 0.963732 0.713127
vt 0.962686 0.714378
vt 0.961430 0.713438
vt 0.959124 0.711179
vt 0.957755 0.708488
vt 0.957771 0.709320
vt 0.960644 0.712707
vt 0.961776 0.713783
vt 0.960833 0.712883
vt 0.961528 0.713494
vt 0.962647 0.714462
vt 0.958899 0.710451
vt 0.957692 0.709267
vt 0.957917 0.707441
vt 0.960423 0.709753
vt 0.964600 0.714078
s 0
usemtl Palette
f 46/1/1 49/2/1 6/3/1
f 31/4/2 30/5/2 50/6/2
f 5/7/3 31/4/3 50/6/3
f 21/8/4 32/9/4 58/10/4
f 21/8/5 33/11/5 32/9/5
f 51/12/6 29/13/6 44/14/6
f 35/15/7 14/16/7 2/17/7
f 36/18/8 53/19/8 54/20/8
f 56/21/9 18/22/9 22/23/9
f 3/24/10 15/25/10 56/21/10
f 19/26/11 16/27/11 58/10/11
f 32/9/12 22/23/12 45/28/12
f 1/29/13 57/30/13 59/31/13
f 23/32/14 24/33/14 7/34/14
f 34/35/15 24/33/15 23/32/15
f 47/36/16 46/1/16 59/31/16
f 47/36/17 49/2/17 46/1/17
f 39/37/18 20/38/18 59/31/18
f 4/39/19 31/4/19 5/7/19
f 2/17/20 11/40/20 35/15/20
f 23/32/21 29/13/21 34/35/21
f 54/20/22 53/19/22 38/41/22
f 30/5/23 53/19/23 10/42/23
f 53/19/24 26/43/24 10/42/24
f 49/2/25 14/16/25 6/3/25
f 9/44/26 14/16/26 49/2/26
f 27/45/27 35/15/27 44/14/27
f 55/46/28 24/33/28 34/35/28
f 25/47/29 54/20/29 38/41/29
f 1/29/30 16/27/30 19/26/30
f 3/24/31 41/48/31 5/7/31
f 4/39/32 41/48/32 40/49/32
f 5/7/33 41/48/33 4/39/33
f 56/21/34 41/48/34 3/24/34
f 42/50/35 23/32/35 7/34/35
f 43/51/36 44/14/36 23/32/36
f 44/14/37 29/13/37 23/32/37
f 58/10/38 32/9/38 45/28/38
f 46/1/39 17/52/39 1/29/39
f 7/34/40 24/33/40 25/47/40
f 46/1/41 48/53/41 17/52/41
f 4/39/42 30/5/42 31/4/42
f 52/54/43 29/13/43 51/12/43
f 34/35/44 52/54/44 36/18/44 55/46/44
f 25/47/45 38/41/45 21/8/45
f 35/15/46 27/45/46 6/3/46 14/16/46
f 37/55/47 4/39/47 40/49/47 38/41/47
f 38/41/48 40/49/48 33/11/48 21/8/48
f 42/50/49 7/34/49 58/10/49 16/27/49
f 28/56/50 22/23/50 18/22/50
f 56/21/51 15/25/51 18/22/51
f 20/38/52 39/37/52 13/57/52 8/58/52
f 28/56/53 45/28/53 22/23/53
f 7/34/54 25/47/54 58/10/54
f 21/8/55 58/10/55 25/47/55
f 46/1/56 6/3/56 48/53/56
f 8/58/57 9/44/57 47/36/57
f 9/44/58 49/2/58 47/36/58
f 11/40/59 12/59/59 52/54/59 51/12/59
f 53/19/60 36/18/60 26/43/60
f 12/59/61 26/43/61 52/54/61
f 26/43/62 36/18/62 52/54/62
f 40/49/63 56/21/63 22/23/63 33/11/63
f 35/15/64 11/40/64 51/12/64
f 32/9/65 33/11/65 22/23/65
f 30/5/66 4/39/66 37/55/66 53/19/66
f 34/35/67 29/13/67 52/54/67
f 38/41/68 53/19/68 37/55/68
f 39/37/69 18/22/69 15/25/69 13/57/69
f 50/6/70 30/5/70 10/42/70
f 10/42/71 26/43/71 12/59/71
f 51/12/72 44/14/72 35/15/72
f 54/20/73 55/46/73 36/18/73
f 55/46/74 54/20/74 24/33/74
f 24/33/75 54/20/75 25/47/75
f 23/32/76 42/50/76 17/52/76 43/51/76
f 39/37/77 57/30/77 28/56/77
f 18/22/78 39/37/78 28/56/78
f 17/52/79 42/50/79 16/27/79
f 59/31/80 57/30/80 39/37/80
f 40/49/81 41/48/81 56/21/81
f 27/45/82 43/51/82 48/53/82 6/3/82
f 57/30/83 1/29/83 19/26/83 45/28/83
f 43/51/84 27/45/84 44/14/84
f 20/38/85 8/58/85 47/36/85 59/31/85
f 57/30/86 45/28/86 28/56/86
f 19/26/87 58/10/87 45/28/87
f 1/29/88 59/31/88 46/1/88
f 16/27/89 1/29/89 17/52/89
f 43/51/90 17/52/90 48/53/90
f 94/1/91 62/3/91 97/2/91
f 79/4/92 50/6/92 78/5/92
f 5/7/93 50/6/93 79/4/93
f 69/8/94 105/10/94 80/9/94
f 69/8/95 80/9/95 81/11/95
f 98/12/96 92/14/96 77/13/96
f 83/15/97 2/17/97 14/16/97
f 84/18/98 101/20/98 100/19/98
f 103/21/99 70/23/99 66/22/99
f 3/24/100 103/21/100 15/25/100
f 67/26/101 105/10/101 64/27/101
f 80/9/102 93/28/102 70/23/102
f 60/29/103 106/31/103 104/30/103
f 71/32/104 63/34/104 72/33/104
f 82/35/105 71/32/105 72/33/105
f 95/36/106 106/31/106 94/1/106
f 95/36/107 94/1/107 97/2/107
f 87/37/108 106/31/108 68/38/108
f 61/39/109 5/7/109 79/4/109
f 2/17/110 83/15/110 11/40/110
f 71/32/111 82/35/111 77/13/111
f 101/20/112 86/41/112 100/19/112
f 78/5/113 10/42/113 100/19/113
f 100/19/114 10/42/114 74/43/114
f 97/2/115 62/3/115 14/16/115
f 9/44/116 97/2/116 14/16/116
f 75/45/117 92/14/117 83/15/117
f 102/46/118 82/35/118 72/33/118
f 73/47/119 86/41/119 101/20/119
f 60/29/120 67/26/120 64/27/120
f 3/24/121 5/7/121 89/48/121
f 61/39/122 88/49/122 89/48/122
f 5/7/123 61/39/123 89/48/123
f 103/21/124 3/24/124 89/48/124
f 90/50/125 63/34/125 71/32/125
f 91/51/126 71/32/126 92/14/126
f 92/14/127 71/32/127 77/13/127
f 105/10/128 93/28/128 80/9/128
f 94/1/129 60/29/129 65/52/129
f 63/34/130 73/47/130 72/33/130
f 94/1/131 65/52/131 96/53/131
f 61/39/132 79/4/132 78/5/132
f 99/54/133 98/12/133 77/13/133
f 82/35/134 102/46/134 84/18/134 99/54/134
f 73/47/135 69/8/135 86/41/135
f 83/15/136 14/16/136 62/3/136 75/45/136
f 85/55/137 86/41/137 88/49/137 61/39/137
f 86/41/138 69/8/138 81/11/138 88/49/138
f 90/50/139 64/27/139 105/10/139 63/34/139
f 76/56/140 66/22/140 70/23/140
f 103/21/141 66/22/141 15/25/141
f 68/38/142 8/58/142 13/57/142 87/37/142
f 76/56/143 70/23/143 93/28/143
f 63/34/144 105/10/144 73/47/144
f 69/8/145 73/47/145 105/10/145
f 94/1/146 96/53/146 62/3/146
f 8/58/147 95/36/147 9/44/147
f 9/44/148 95/36/148 97/2/148
f 11/40/149 98/12/149 99/54/149 12/59/149
f 100/19/150 74/43/150 84/18/150
f 12/59/151 99/54/151 74/43/151
f 74/43/152 99/54/152 84/18/152
f 88/49/153 81/11/153 70/23/153 103/21/153
f 83/15/154 98/12/154 11/40/154
f 80/9/155 70/23/155 81/11/155
f 78/5/156 100/19/156 85/55/156 61/39/156
f 82/35/157 99/54/157 77/13/157
f 86/41/158 85/55/158 100/19/158
f 87/37/159 13/57/159 15/25/159 66/22/159
f 50/6/160 10/42/160 78/5/160
f 10/42/161 12/59/161 74/43/161
f 98/12/162 83/15/162 92/14/162
f 101/20/163 84/18/163 102/46/163
f 102/46/164 72/33/164 101/20/164
f 72/33/165 73/47/165 101/20/165
f 71/32/166 91/51/166 65/52/166 90/50/166
f 87/37/167 76/56/167 104/30/167
f 66/22/168 76/56/168 87/37/168
f 65/52/169 64/27/169 90/50/169
f 106/31/170 87/37/170 104/30/170
f 88/49/171 103/21/171 89/48/171
f 75/45/172 62/3/172 96/53/172 91/51/172
f 104/30/173 93/28/173 67/26/173 60/29/173
f 91/51/174 92/14/174 75/45/174
f 68/38/175 106/31/175 95/36/175 8/58/175
f 104/30/176 76/56/176 93/28/176
f 67/26/177 93/28/177 105/10/177
f 60/29/178 94/1/178 106/31/178
f 64/27/179 65/52/179 60/29/179
f 91/51/180 96/53/180 65/52/180
