# Blender 3.6.5
# www.blender.org
mtllib e_Painting_2.mtl
o e_Painting_2
v -0.581250 -0.581250 0.032016
v -0.581250 -0.268750 0.032016
v -0.018750 -0.268750 0.032016
v -0.018750 -0.581250 0.032016
v 0.018750 -0.581250 0.032016
v 0.018750 0.231250 0.032016
v 0.581250 0.231250 0.032016
v 0.581250 -0.581250 0.032016
v -0.581250 -0.231250 0.032016
v -0.581250 0.581250 0.032016
v -0.018750 0.581250 0.032016
v -0.018750 -0.231250 0.032016
v 0.018750 0.268750 0.032016
v 0.018750 0.581250 0.032016
v 0.581250 0.581250 0.032016
v 0.581250 0.268750 0.032016
v -0.581250 -0.581250 -0.006198
v -0.581250 -0.268750 -0.006198
v -0.018750 -0.268750 -0.006198
v -0.018750 -0.581250 -0.006198
v 0.018750 -0.581250 -0.006198
v 0.018750 0.231250 -0.006198
v 0.581250 0.231250 -0.006198
v 0.581250 -0.581250 -0.006198
v -0.581250 -0.231250 -0.006198
v -0.581250 0.581250 -0.006198
v -0.018750 0.581250 -0.006198
v -0.018750 -0.231250 -0.006198
v 0.018750 0.268750 -0.006198
v 0.018750 0.581250 -0.006198
v 0.581250 0.581250 -0.006198
v 0.581250 0.268750 -0.006198
vn -0.0000 -0.0000 1.0000
vn -0.0000 -0.0000 -1.0000
vn -0.0000 -1.0000 -0.0000
vn -0.0000 1.0000 -0.0000
vn -1.0000 -0.0000 -0.0000
vn 1.0000 -0.0000 -0.0000
vt 0.179893 0.153611
vt 0.179893 0.245351
vt 0.014762 0.245351
vt 0.014762 0.153611
vt 0.356034 0.153611
vt 0.356034 0.392135
vt 0.190902 0.392135
vt 0.190902 0.153611
vt 0.179893 0.256360
vt 0.179893 0.494884
vt 0.014762 0.494884
vt 0.014762 0.256360
vt 0.356034 0.403144
vt 0.356034 0.494884
vt 0.190902 0.494884
vt 0.190902 0.403144
vt 0.126075 0.871962
vt 0.124424 0.871962
vt 0.124424 0.872880
vt 0.126075 0.872880
vt 0.127837 0.871962
vt 0.126185 0.871962
vt 0.126185 0.874348
vt 0.127837 0.874348
vt 0.126075 0.872990
vt 0.124424 0.872990
vt 0.124424 0.875375
vt 0.126075 0.875375
vt 0.127837 0.874458
vt 0.126185 0.874458
vt 0.126185 0.875375
vt 0.127837 0.875375
vt 0.190902 0.329752
vt 0.356034 0.329752
vt 0.356034 0.318743
vt 0.190902 0.318743
vt 0.014762 0.256360
vt 0.179893 0.256360
vt 0.179893 0.256360
vt 0.014762 0.329752
vt 0.179893 0.329752
vt 0.179893 0.318743
vt 0.014762 0.318743
vt 0.190902 0.392135
vt 0.356034 0.392135
s 0
usemtl Palette
f 20/17/2 17/18/2 18/19/2 19/20/2
f 24/21/2 21/22/2 22/23/2 23/24/2
f 28/25/2 25/26/2 26/27/2 27/28/2
f 32/29/2 29/30/2 30/31/2 31/32/2
usemtl PaintingE2
f 4/1/1 3/2/1 2/3/1 1/4/1
f 8/5/1 7/6/1 6/7/1 5/8/1
f 12/9/1 11/10/1 10/11/1 9/12/1
f 16/13/1 15/14/1 14/15/1 13/16/1
f 5/8/3 21/8/3 24/5/3 8/5/3
f 13/33/3 29/33/3 32/34/3 16/34/3
f 7/35/4 23/35/4 22/36/4 6/36/4
f 2/3/5 18/3/5 17/4/5 1/4/5
f 15/14/4 31/14/4 30/15/4 14/15/4
f 10/11/5 26/11/5 25/37/5 9/37/5
f 4/1/6 20/1/6 19/2/6 3/2/6
f 12/38/6 28/39/6 27/10/6 11/10/6
f 1/4/3 17/4/3 20/1/3 4/1/3
f 9/40/3 25/40/3 28/41/3 12/41/3
f 3/42/4 19/42/4 18/43/4 2/43/4
f 11/10/4 27/10/4 26/11/4 10/11/4
f 6/44/5 22/44/5 21/8/5 5/8/5
f 14/15/5 30/15/5 29/16/5 13/16/5
f 8/5/6 24/5/6 23/45/6 7/6/6
f 16/13/6 32/13/6 31/14/6 15/14/6
